<!-- Generator: Adobe Illustrator 22.1.0, SVG Export Plug-In  -->
<svg version="1.1"
	 xmlns="http://www.w3.org/2000/svg" xmlns:xlink="http://www.w3.org/1999/xlink" xmlns:a="http://ns.adobe.com/AdobeSVGViewerExtensions/3.0/"
	 x="0px" y="0px" width="1366px" height="895.078px" viewBox="0 0 1366 895.078" style="enable-background:new 0 0 1366 895.078;"
	 xml:space="preserve">
<style type="text/css">
	.st0{opacity:0.9;fill:#003566;}
	.st1{fill:#EB0E23;}
	.st2{fill:#FFFFFF;}
	.st3{font-family:'Roboto-Bold';}
	.st4{font-size:110px;}
	.st5{letter-spacing:-2;}
	.st6{letter-spacing:-4;}
	.st7{font-family:'NimbusSanL-Bol';}
	.st8{font-size:15px;}
	.st9{letter-spacing:-1.014;}
	.st10{font-size:20.5479px;}
</style>
<defs>
</defs>
<rect x="1111.832" y="747.828" width="170.488" height="59.672"/>
<rect id="Blue_Box_1_" class="st0" width="1366" height="895.078"/>
<g>
	<path class="st1" d="M784.964,93.572h-25.352l-5.264,16.865h-16.382l26.372-78.203h16.06l26.265,78.203h-16.382L784.964,93.572z
		 M763.48,81.272h17.671l-8.647-27.554h-0.322L763.48,81.272z"/>
	<path class="st1" d="M862.845,82.991c0,8.594-1.987,15.505-5.962,20.732c-3.975,5.229-9.525,7.842-16.65,7.842
		c-3.044,0-5.747-0.563-8.11-1.692c-2.363-1.127-4.387-2.783-6.069-4.968v27.876h-15.63V52.322h14.126l0.913,6.875
		c1.719-2.542,3.787-4.503,6.203-5.881c2.418-1.379,5.237-2.068,8.46-2.068c7.197,0,12.783,2.812,16.758,8.433
		c3.975,5.622,5.962,13.017,5.962,22.183V82.991z M847.161,81.863c0-5.479-0.913-9.918-2.739-13.32
		c-1.826-3.401-4.619-5.103-8.379-5.103c-2.363,0-4.378,0.483-6.042,1.45c-1.666,0.967-2.981,2.346-3.948,4.136v25.459
		c0.967,1.647,2.282,2.9,3.948,3.76c1.664,0.859,3.714,1.289,6.149,1.289c3.795,0,6.579-1.485,8.353-4.458
		c1.771-2.972,2.658-7,2.658-12.085V81.863z"/>
	<path class="st1" d="M924.935,82.991c0,8.594-1.987,15.505-5.962,20.732c-3.975,5.229-9.525,7.842-16.65,7.842
		c-3.044,0-5.747-0.563-8.11-1.692c-2.363-1.127-4.387-2.783-6.069-4.968v27.876h-15.63V52.322h14.126l0.913,6.875
		c1.719-2.542,3.787-4.503,6.203-5.881c2.418-1.379,5.237-2.068,8.46-2.068c7.197,0,12.783,2.812,16.758,8.433
		c3.975,5.622,5.962,13.017,5.962,22.183V82.991z M909.251,81.863c0-5.479-0.913-9.918-2.739-13.32
		c-1.826-3.401-4.619-5.103-8.379-5.103c-2.363,0-4.378,0.483-6.042,1.45c-1.666,0.967-2.981,2.346-3.948,4.136v25.459
		c0.967,1.647,2.282,2.9,3.948,3.76c1.664,0.859,3.714,1.289,6.149,1.289c3.795,0,6.579-1.485,8.353-4.458
		c1.771-2.972,2.658-7,2.658-12.085V81.863z"/>
	<path class="st1" d="M951.092,110.437h-15.684V26.648h15.684V110.437z"/>
	<path class="st1" d="M984.93,86.052l0.645,3.223h0.322l11.118-36.953h16.865l-23.579,66.816c-1.647,4.153-3.886,7.654-6.714,10.5
		c-2.829,2.848-7.072,4.271-12.729,4.271c-1.325,0-2.551-0.107-3.68-0.322c-1.127-0.215-2.497-0.52-4.108-0.913l1.826-11.44
		c0.465,0.071,0.967,0.143,1.504,0.215c0.537,0.071,1.021,0.107,1.45,0.107c2.578,0,4.565-0.636,5.962-1.907
		c1.396-1.271,2.471-2.855,3.223-4.753l1.826-4.512l-20.625-58.062h16.865L984.93,86.052z"/>
	<path class="st1" d="M1103.255,44.319h-22.344v66.118h-15.684V44.319h-22.021V32.234h60.049V44.319z"/>
	<path class="st1" d="M1104.007,80.842c0-8.665,2.417-15.765,7.251-21.296c4.834-5.533,11.529-8.299,20.088-8.299
		c8.594,0,15.325,2.758,20.195,8.271c4.869,5.515,7.305,12.622,7.305,21.323v1.128c0,8.737-2.426,15.854-7.277,21.35
		c-4.853,5.497-11.558,8.245-20.115,8.245c-8.594,0-15.316-2.748-20.168-8.245c-4.853-5.496-7.278-12.612-7.278-21.35V80.842z
		 M1119.637,81.97c0,5.3,0.931,9.552,2.793,12.756c1.861,3.205,4.869,4.808,9.023,4.808c4.046,0,7.01-1.611,8.889-4.834
		c1.881-3.223,2.82-7.466,2.82-12.729v-1.128c0-5.156-0.949-9.363-2.847-12.622c-1.898-3.258-4.888-4.888-8.97-4.888
		c-4.047,0-7.01,1.638-8.889,4.915c-1.881,3.275-2.82,7.475-2.82,12.595V81.97z"/>
	<path class="st1" d="M1166.097,81.863c0-9.166,1.979-16.561,5.935-22.183c3.957-5.621,9.534-8.433,16.731-8.433
		c2.9,0,5.514,0.627,7.842,1.88c2.327,1.254,4.368,3.044,6.123,5.371V26.648h15.737v83.789h-13.374l-1.343-7.144
		c-1.826,2.686-3.993,4.735-6.499,6.149c-2.507,1.415-5.371,2.122-8.594,2.122c-7.126,0-12.667-2.613-16.624-7.842
		c-3.956-5.228-5.935-12.139-5.935-20.732V81.863z M1181.727,82.991c0,5.085,0.859,9.086,2.578,12.005
		c1.719,2.918,4.512,4.377,8.379,4.377c2.256,0,4.225-0.457,5.908-1.369c1.683-0.914,3.062-2.247,4.136-4.002V69.241
		c-1.074-1.826-2.444-3.249-4.108-4.271c-1.666-1.02-3.608-1.53-5.828-1.53c-3.832,0-6.633,1.701-8.406,5.103
		c-1.771,3.402-2.658,7.842-2.658,13.32V82.991z"/>
	<path class="st1" d="M1264.871,110.437c-0.573-1.324-1.065-2.721-1.477-4.189c-0.412-1.468-0.708-2.972-0.887-4.512
		c-1.611,2.829-3.742,5.175-6.392,7.036c-2.65,1.861-5.801,2.793-9.453,2.793c-6.088,0-10.778-1.566-14.072-4.7
		c-3.295-3.133-4.941-7.402-4.941-12.81c0-5.693,2.193-10.106,6.579-13.239c4.387-3.134,10.787-4.7,19.202-4.7h8.809v-4.619
		c0-2.793-0.734-4.959-2.202-6.499c-1.469-1.539-3.652-2.31-6.553-2.31c-2.543,0-4.503,0.618-5.881,1.853
		c-1.379,1.236-2.068,2.928-2.068,5.076h-15.093l-0.107-0.322c-0.251-4.905,1.889-9.14,6.419-12.703
		c4.529-3.562,10.446-5.344,17.751-5.344c6.982,0,12.631,1.755,16.946,5.264c4.314,3.51,6.472,8.54,6.472,15.093v24.009
		c0,2.722,0.206,5.282,0.618,7.681c0.411,2.399,1.064,4.78,1.96,7.144H1264.871z M1250.53,99.963c2.721,0,5.156-0.68,7.305-2.041
		c2.148-1.36,3.616-2.936,4.404-4.727v-8.218h-8.809c-3.33,0-5.846,0.824-7.546,2.471c-1.701,1.647-2.552,3.671-2.552,6.069
		c0,1.97,0.636,3.536,1.907,4.7C1246.511,99.381,1248.275,99.963,1250.53,99.963z"/>
	<path class="st1" d="M1309.827,86.052l0.645,3.223h0.322l11.118-36.953h16.865l-23.579,66.816c-1.647,4.153-3.886,7.654-6.714,10.5
		c-2.829,2.848-7.072,4.271-12.729,4.271c-1.325,0-2.551-0.107-3.68-0.322c-1.127-0.215-2.497-0.52-4.108-0.913l1.826-11.44
		c0.465,0.071,0.967,0.143,1.504,0.215c0.537,0.071,1.021,0.107,1.45,0.107c2.578,0,4.565-0.636,5.962-1.907
		c1.396-1.271,2.471-2.855,3.223-4.753l1.826-4.512l-20.625-58.062h16.865L1309.827,86.052z"/>
</g>
<rect x="96.96" y="252.111" class="st2" width="290.087" height="59.672"/>
<rect x="751.125" y="252.111" class="st2" width="531.701" height="59.672"/>
<g>
	<path d="M108.949,266.215v7.56h-2.22V262.84h2.279l4.278,7.44v-7.44h2.22v10.935h-2.22L108.949,266.215z"/>
	<path d="M119.69,271.569l-0.725,2.205H116.7l3.833-10.935h2.457l3.73,10.935h-2.279l-0.71-2.205H119.69z M121.717,265.42
		l-1.406,4.274h2.812L121.717,265.42z"/>
	<path d="M130.193,273.774h-2.22V262.84h3.315l1.954,8.7l1.895-8.7h3.345v10.935h-2.22v-8.52l-1.91,8.52h-2.22l-1.939-8.52V273.774z
		"/>
	<path d="M142.71,271.899h5.846v1.875h-8.066V262.84h7.8v1.875h-5.58v2.475h5.166v1.875h-5.166V271.899z"/>
</g>
<g>
	<path class="st2" d="M101.26,214.881l0.326-1.035l1.613,0.54v-1.74h1.066v1.74l1.598-0.54l0.326,1.05l-1.599,0.525l0.992,1.41
		l-0.858,0.645l-0.992-1.41l-1.006,1.41l-0.858-0.645l0.992-1.41L101.26,214.881z"/>
	<path class="st2" d="M110.049,221.375l-0.725,2.205h-2.265l3.833-10.935h2.457l3.73,10.935H114.8l-0.71-2.205H110.049z
		 M112.077,215.226l-1.406,4.274h2.812L112.077,215.226z"/>
	<path class="st2" d="M120.76,221.706h5.166v1.875h-7.386v-10.935h2.22V221.706z"/>
	<path class="st2" d="M129.799,221.706h5.166v1.875h-7.386v-10.935h2.22V221.706z"/>
	<path class="st2" d="M142.863,223.581h-2.22v-10.935h7.578v1.875h-5.358v2.475h4.722v1.875h-4.722V223.581z"/>
	<path class="st2" d="M151.739,223.581h-2.22v-10.935h2.22V223.581z"/>
	<path class="st2" d="M156.104,221.706h5.166v1.875h-7.386v-10.935h2.22V221.706z"/>
	<path class="st2" d="M162.879,212.646h4.218c1.658,0,2.679,0.375,3.419,1.26c0.844,1.035,1.303,2.505,1.303,4.2
		c0,1.71-0.459,3.18-1.303,4.2c-0.74,0.885-1.776,1.275-3.419,1.275h-4.218V212.646z M167.097,221.706
		c1.672,0,2.501-1.185,2.501-3.585c0-2.415-0.829-3.6-2.501-3.6h-1.998v7.185H167.097z"/>
	<path class="st2" d="M179.332,215.976c-0.074-1.11-0.858-1.71-2.265-1.71c-1.154,0-1.865,0.525-1.865,1.35
		c0,0.795,0.458,1.11,2.042,1.425l1.688,0.33c1.998,0.39,2.856,1.29,2.856,3.015c0,2.235-1.643,3.54-4.426,3.54
		c-2.753,0-4.336-1.275-4.47-3.615h2.161c0.074,1.17,0.917,1.815,2.427,1.815c1.347,0,2.176-0.555,2.176-1.47
		c0-0.885-0.548-1.305-2.028-1.59l-1.51-0.3c-2.19-0.42-3.034-1.245-3.034-2.94c0-2.13,1.495-3.36,4.085-3.36
		c2.724,0,4.218,1.245,4.233,3.51H179.332z"/>
	<path class="st2" d="M189.775,221.375l-0.725,2.205h-2.265l3.833-10.935h2.457l3.73,10.935h-2.279l-0.71-2.205H189.775z
		 M191.803,215.226l-1.406,4.274h2.812L191.803,215.226z"/>
	<path class="st2" d="M200.486,223.581h-2.22v-10.935h5.787c0.918,0,1.599,0.24,2.087,0.75c0.518,0.54,0.814,1.335,0.814,2.205
		c0,1.335-0.606,2.22-1.82,2.7c1.376,0.6,1.436,0.75,1.495,3.975c0,0.48,0.133,0.705,0.474,0.9v0.405h-2.383
		c-0.266-0.525-0.326-0.84-0.326-1.875c0-0.165,0-0.435,0.015-0.72v-0.45c0-0.9-0.415-1.29-1.376-1.29h-2.546V223.581z
		 M203.165,217.371c0.637,0,0.918-0.075,1.169-0.285c0.267-0.225,0.4-0.645,0.4-1.17c0-0.51-0.133-0.885-0.4-1.11
		c-0.281-0.225-0.533-0.285-1.169-0.285h-2.679v2.85H203.165z"/>
	<path class="st2" d="M211.139,221.706h5.846v1.875h-8.066v-10.935h7.8v1.875h-5.58v2.475h5.166v1.875h-5.166V221.706z"/>
	<path class="st2" d="M225.134,223.581h-2.22v-10.935h5.787c0.918,0,1.599,0.24,2.087,0.75c0.518,0.54,0.814,1.335,0.814,2.205
		c0,1.335-0.606,2.22-1.82,2.7c1.376,0.6,1.436,0.75,1.495,3.975c0,0.48,0.133,0.705,0.474,0.9v0.405h-2.383
		c-0.266-0.525-0.326-0.84-0.326-1.875c0-0.165,0-0.435,0.015-0.72v-0.45c0-0.9-0.415-1.29-1.376-1.29h-2.546V223.581z
		 M227.813,217.371c0.637,0,0.918-0.075,1.169-0.285c0.267-0.225,0.4-0.645,0.4-1.17c0-0.51-0.133-0.885-0.4-1.11
		c-0.281-0.225-0.533-0.285-1.169-0.285h-2.679v2.85H227.813z"/>
	<path class="st2" d="M235.786,221.706h5.846v1.875h-8.066v-10.935h7.8v1.875h-5.58v2.475h5.166v1.875h-5.166V221.706z"/>
	<path class="st2" d="M253.291,223.176l-1.125,1.215l-1.273-1.215c-0.858,0.525-1.672,0.75-2.797,0.75
		c-1.539,0-2.753-0.495-3.686-1.515c-0.947-1.035-1.51-2.58-1.51-4.215s0.548-3.18,1.51-4.215c0.933-1.02,2.146-1.515,3.686-1.515
		c1.54,0,2.753,0.495,3.686,1.515c0.947,1.035,1.51,2.58,1.51,4.185c0,1.47-0.459,2.97-1.184,3.87L253.291,223.176z
		 M250.583,220.581c0.326-0.66,0.488-1.47,0.488-2.37c0-2.325-1.169-3.825-2.975-3.825s-2.975,1.5-2.975,3.81
		c0,2.295,1.184,3.81,2.96,3.81c0.474,0,0.947-0.105,1.302-0.285l-1.14-1.095l1.125-1.215L250.583,220.581z"/>
	<path class="st2" d="M263.483,212.646v7.41c0,1.23-0.325,2.1-1.051,2.76c-0.784,0.72-1.924,1.11-3.227,1.11
		c-1.302,0-2.442-0.39-3.227-1.11c-0.725-0.66-1.051-1.53-1.051-2.76v-7.41h2.22v7.41c0,1.32,0.666,1.95,2.057,1.95
		s2.058-0.63,2.058-1.95v-7.41H263.483z"/>
	<path class="st2" d="M267.638,223.581h-2.22v-10.935h2.22V223.581z"/>
	<path class="st2" d="M272.003,223.581h-2.22v-10.935h5.787c0.918,0,1.599,0.24,2.087,0.75c0.518,0.54,0.814,1.335,0.814,2.205
		c0,1.335-0.606,2.22-1.82,2.7c1.376,0.6,1.436,0.75,1.495,3.975c0,0.48,0.133,0.705,0.474,0.9v0.405h-2.383
		c-0.266-0.525-0.326-0.84-0.326-1.875c0-0.165,0-0.435,0.015-0.72v-0.45c0-0.9-0.415-1.29-1.376-1.29h-2.546V223.581z
		 M274.681,217.371c0.637,0,0.918-0.075,1.169-0.285c0.267-0.225,0.4-0.645,0.4-1.17c0-0.51-0.133-0.885-0.4-1.11
		c-0.281-0.225-0.533-0.285-1.169-0.285h-2.679v2.85H274.681z"/>
	<path class="st2" d="M282.654,221.706h5.846v1.875h-8.066v-10.935h7.8v1.875h-5.58v2.475h5.166v1.875h-5.166V221.706z"/>
	<path class="st2" d="M290.273,212.646h4.218c1.658,0,2.679,0.375,3.419,1.26c0.844,1.035,1.303,2.505,1.303,4.2
		c0,1.71-0.459,3.18-1.303,4.2c-0.74,0.885-1.776,1.275-3.419,1.275h-4.218V212.646z M294.491,221.706
		c1.672,0,2.501-1.185,2.501-3.585c0-2.415-0.829-3.6-2.501-3.6h-1.998v7.185H294.491z"/>
</g>
<rect x="96.96" y="340.313" class="st2" width="290.087" height="59.672"/>
<g>
	<path d="M111.071,359.771l-0.725,2.205h-2.265l3.833-10.935h2.457l3.73,10.935h-2.279l-0.71-2.205H111.071z M113.099,353.622
		l-1.406,4.274h2.812L113.099,353.622z"/>
	<path d="M128.354,362.006h-1.332l-0.267-1.44c-0.829,1.23-1.806,1.755-3.256,1.755c-2.916,0-5.047-2.415-5.047-5.73
		c0-3.405,2.117-5.73,5.225-5.73c2.605,0,4.411,1.41,4.677,3.675h-2.087c-0.192-0.57-0.355-0.825-0.666-1.095
		c-0.488-0.435-1.14-0.66-1.909-0.66c-1.895,0-3.02,1.425-3.02,3.78c0,2.25,1.273,3.84,3.079,3.84c0.844,0,1.672-0.39,2.206-1.05
		c0.325-0.39,0.474-0.765,0.533-1.38h-2.457v-1.875h4.322V362.006z"/>
	<path d="M132.731,360.102h5.846v1.875h-8.066v-10.935h7.8v1.875h-5.58v2.475h5.166v1.875h-5.166V360.102z"/>
</g>
<rect x="424.042" y="252.111" class="st2" width="290.087" height="59.672"/>
<g>
	<path d="M437.389,273.774h-2.22V262.84h3.315l1.954,8.7l1.895-8.7h3.345v10.935h-2.22v-8.52l-1.91,8.52h-2.22l-1.938-8.52V273.774z
		"/>
	<path d="M449.668,273.774h-2.22V262.84h2.22V273.774z"/>
	<path d="M451.768,262.84h4.218c1.658,0,2.679,0.375,3.419,1.26c0.844,1.035,1.303,2.505,1.303,4.2c0,1.71-0.459,3.18-1.303,4.2
		c-0.74,0.885-1.776,1.275-3.419,1.275h-4.218V262.84z M455.986,271.899c1.672,0,2.501-1.185,2.501-3.585
		c0-2.415-0.829-3.6-2.501-3.6h-1.998v7.185H455.986z"/>
	<path d="M462.449,262.84h4.218c1.658,0,2.679,0.375,3.419,1.26c0.844,1.035,1.303,2.505,1.303,4.2c0,1.71-0.459,3.18-1.303,4.2
		c-0.74,0.885-1.776,1.275-3.419,1.275h-4.218V262.84z M466.668,271.899c1.672,0,2.501-1.185,2.501-3.585
		c0-2.415-0.829-3.6-2.501-3.6h-1.998v7.185H466.668z"/>
	<path d="M475.395,271.899h5.166v1.875h-7.386V262.84h2.22V271.899z"/>
	<path d="M484.42,271.899h5.846v1.875H482.2V262.84h7.8v1.875h-5.58v2.475h5.166v1.875h-5.166V271.899z"/>
</g>
<rect x="96.96" y="428.516" class="st2" width="290.087" height="59.672"/>
<g>
	<path d="M107.134,439.244h4.218c1.658,0,2.679,0.375,3.419,1.26c0.844,1.035,1.303,2.505,1.303,4.2c0,1.71-0.459,3.18-1.303,4.2
		c-0.74,0.885-1.776,1.275-3.419,1.275h-4.218V439.244z M111.352,448.304c1.672,0,2.501-1.185,2.501-3.585
		c0-2.415-0.829-3.6-2.501-3.6h-1.998v7.185H111.352z"/>
	<path d="M119.843,450.179h-2.22v-2.19h2.22V450.179z"/>
	<path d="M130.261,440.579c0.962,1.035,1.51,2.58,1.51,4.29c0,1.545-0.577,3.135-1.51,4.14c-0.933,1.02-2.146,1.515-3.686,1.515
		c-1.539,0-2.753-0.495-3.686-1.515c-0.962-1.035-1.509-2.58-1.509-4.215s0.547-3.165,1.509-4.215
		c0.918-1.005,2.161-1.515,3.671-1.515C128.13,439.064,129.314,439.544,130.261,440.579z M123.601,444.794
		c0,2.31,1.169,3.81,2.975,3.81c1.776,0,2.975-1.5,2.975-3.75c0-2.37-1.154-3.87-2.975-3.87
		C124.77,440.984,123.601,442.484,123.601,444.794z"/>
	<path d="M135.289,450.179h-2.22v-2.19h2.22V450.179z"/>
	<path d="M137.448,439.244h4.81c1.155,0,1.909,0.24,2.546,0.795c0.607,0.54,0.977,1.32,0.977,2.085c0,0.93-0.415,1.56-1.48,2.25
		c1.229,0.72,1.791,1.575,1.791,2.655c0,0.885-0.415,1.8-1.065,2.355c-0.651,0.555-1.48,0.795-2.724,0.795h-4.854V439.244z
		 M139.668,443.594h2.412c1.036,0,1.569-0.42,1.569-1.245c0-0.81-0.533-1.23-1.569-1.23h-2.412V443.594z M139.668,448.304h2.649
		c1.081,0,1.643-0.48,1.643-1.41c0-0.945-0.562-1.425-1.643-1.425h-2.649V448.304z"/>
</g>
<rect x="424.042" y="340.313" class="st2" width="290.087" height="59.672"/>
<g>
	<path d="M441.423,362.006h-1.332l-0.267-1.44c-0.829,1.23-1.806,1.755-3.256,1.755c-2.916,0-5.047-2.415-5.047-5.73
		c0-3.405,2.117-5.73,5.225-5.73c2.605,0,4.411,1.41,4.677,3.675h-2.087c-0.192-0.57-0.355-0.825-0.666-1.095
		c-0.488-0.435-1.14-0.66-1.909-0.66c-1.895,0-3.02,1.425-3.02,3.78c0,2.25,1.273,3.84,3.079,3.84c0.844,0,1.672-0.39,2.206-1.05
		c0.325-0.39,0.474-0.765,0.533-1.38h-2.457v-1.875h4.322V362.006z"/>
	<path d="M445.799,360.102h5.846v1.875h-8.066v-10.935h7.8v1.875h-5.58v2.475h5.166v1.875h-5.166V360.102z"/>
	<path d="M455.504,354.417v7.56h-2.22v-10.935h2.279l4.278,7.44v-7.44h2.22v10.935h-2.22L455.504,354.417z"/>
	<path d="M464.098,351.042h4.218c1.658,0,2.679,0.375,3.419,1.26c0.844,1.035,1.303,2.505,1.303,4.2c0,1.71-0.459,3.18-1.303,4.2
		c-0.74,0.885-1.776,1.275-3.419,1.275h-4.218V351.042z M468.316,360.102c1.672,0,2.501-1.185,2.501-3.585
		c0-2.415-0.829-3.6-2.501-3.6h-1.998v7.185H468.316z"/>
	<path d="M477.03,360.102h5.846v1.875h-8.066v-10.935h7.8v1.875h-5.58v2.475h5.166v1.875h-5.166V360.102z"/>
	<path d="M486.912,361.977h-2.22v-10.935h5.787c0.918,0,1.599,0.24,2.087,0.75c0.518,0.54,0.814,1.335,0.814,2.205
		c0,1.335-0.606,2.22-1.82,2.7c1.376,0.6,1.436,0.75,1.495,3.975c0,0.48,0.133,0.705,0.474,0.9v0.405h-2.383
		c-0.266-0.525-0.326-0.84-0.326-1.875c0-0.165,0-0.435,0.015-0.72v-0.45c0-0.9-0.415-1.29-1.376-1.29h-2.546V361.977z
		 M489.591,355.767c0.637,0,0.918-0.075,1.169-0.285c0.267-0.225,0.4-0.645,0.4-1.17c0-0.51-0.133-0.885-0.4-1.11
		c-0.281-0.225-0.533-0.285-1.169-0.285h-2.679v2.85H489.591z"/>
</g>
<g>
	<path d="M761.255,271.899h5.165v1.875h-7.386v-10.935h2.221V271.899z"/>
	<path d="M770.383,271.569l-0.726,2.205h-2.265l3.834-10.935h2.457l3.729,10.935h-2.279l-0.71-2.205H770.383z M772.41,265.419
		l-1.406,4.274h2.812L772.41,265.419z"/>
	<path d="M784.335,266.169c-0.074-1.11-0.858-1.71-2.265-1.71c-1.154,0-1.864,0.525-1.864,1.35c0,0.795,0.458,1.11,2.042,1.425
		l1.688,0.33c1.998,0.39,2.856,1.29,2.856,3.015c0,2.235-1.643,3.54-4.426,3.54c-2.753,0-4.336-1.275-4.47-3.615h2.161
		c0.074,1.17,0.918,1.815,2.428,1.815c1.347,0,2.176-0.555,2.176-1.47c0-0.885-0.548-1.305-2.028-1.59l-1.51-0.3
		c-2.19-0.42-3.034-1.245-3.034-2.94c0-2.13,1.495-3.36,4.085-3.36c2.724,0,4.219,1.245,4.233,3.51H784.335z"/>
	<path d="M792.9,273.774h-2.22v-9.06h-3.271v-1.875h8.645v1.875H792.9V273.774z"/>
	<path d="M803.581,266.214v7.56h-2.221v-10.935h2.279l4.278,7.44v-7.44h2.22v10.935h-2.22L803.581,266.214z"/>
	<path d="M814.321,271.569l-0.725,2.205h-2.265l3.833-10.935h2.457l3.73,10.935h-2.279l-0.711-2.205H814.321z M816.35,265.419
		l-1.406,4.274h2.812L816.35,265.419z"/>
	<path d="M824.826,273.774h-2.221v-10.935h3.315l1.954,8.7l1.895-8.7h3.345v10.935h-2.22v-8.52l-1.91,8.52h-2.22l-1.938-8.52
		V273.774z"/>
	<path d="M837.342,271.899h5.847v1.875h-8.066v-10.935h7.8v1.875h-5.58v2.475h5.166v1.875h-5.166V271.899z"/>
</g>
<rect x="96.96" y="512.938" class="st2" width="615.02" height="59.672"/>
<g>
	<path d="M110.063,532.726h5.846v1.875h-8.066v-10.935h7.8v1.875h-5.58v2.475h5.166v1.875h-5.166V532.726z"/>
	<path d="M119.738,534.601h-2.22v-10.935h3.315l1.954,8.7l1.895-8.7h3.345v10.935h-2.22v-8.52l-1.91,8.52h-2.22l-1.939-8.52V534.601
		z"/>
	<path d="M132.18,532.395l-0.725,2.205h-2.265l3.833-10.935h2.457l3.73,10.935h-2.279l-0.71-2.205H132.18z M134.208,526.246
		l-1.406,4.274h2.812L134.208,526.246z"/>
	<path d="M142.64,534.601h-2.22v-10.935h2.22V534.601z"/>
	<path d="M147.004,532.726h5.166v1.875h-7.386v-10.935h2.22V532.726z"/>
</g>
<rect x="96.96" y="675.192" class="st2" width="615.02" height="59.672"/>
<g>
	<path d="M110.775,696.855h-2.22v-10.935h4.766c2.25,0,3.479,1.2,3.479,3.39c0,2.22-1.273,3.645-3.256,3.645h-2.768V696.855z
		 M112.846,691.08c1.184,0,1.732-0.524,1.732-1.649c0-1.11-0.548-1.635-1.732-1.635h-2.072v3.284H112.846z"/>
	<path d="M120.376,691.891v4.965h-2.22v-10.935h2.22v4.095h4.263v-4.095h2.235v10.935h-2.22v-4.965H120.376z"/>
	<path d="M137.303,687.256c0.962,1.035,1.51,2.58,1.51,4.29c0,1.545-0.577,3.135-1.51,4.14c-0.933,1.02-2.146,1.515-3.686,1.515
		c-1.539,0-2.753-0.495-3.686-1.515c-0.962-1.035-1.509-2.58-1.509-4.215s0.547-3.165,1.509-4.215
		c0.918-1.005,2.161-1.516,3.671-1.516C135.172,685.74,136.356,686.221,137.303,687.256z M130.643,691.471
		c0,2.31,1.169,3.81,2.975,3.81c1.776,0,2.975-1.5,2.975-3.75c0-2.37-1.154-3.87-2.975-3.87
		C131.812,687.66,130.643,689.16,130.643,691.471z"/>
	<path d="M142.567,689.296v7.56h-2.22v-10.935h2.279l4.278,7.439v-7.439h2.22v10.935h-2.22L142.567,689.296z"/>
	<path d="M153.412,694.98h5.846v1.875h-8.066v-10.935h7.8v1.875h-5.58v2.475h5.166v1.875h-5.166V694.98z"/>
</g>
<rect x="96.96" y="756.001" class="st2" width="615.02" height="59.672"/>
<g>
	<path d="M111.859,770.435c-0.296-1.335-1.021-1.966-2.309-1.966c-1.747,0-2.797,1.44-2.797,3.855c0,2.385,1.006,3.795,2.723,3.795
		c1.376,0,2.235-0.795,2.383-2.19h2.161c-0.133,2.505-1.909,4.08-4.603,4.08c-3.005,0-4.884-2.189-4.884-5.715
		c0-3.54,1.895-5.745,4.943-5.745c1.613,0,2.945,0.615,3.774,1.726c0.459,0.615,0.651,1.215,0.725,2.16H111.859z"/>
	<path d="M123.947,768.064c0.962,1.035,1.51,2.58,1.51,4.29c0,1.545-0.577,3.135-1.51,4.14c-0.933,1.02-2.146,1.515-3.686,1.515
		c-1.539,0-2.753-0.495-3.686-1.515c-0.962-1.035-1.51-2.58-1.51-4.215s0.548-3.165,1.51-4.215c0.918-1.005,2.161-1.516,3.671-1.516
		C121.816,766.549,123,767.029,123.947,768.064z M117.286,772.279c0,2.31,1.169,3.81,2.975,3.81c1.776,0,2.975-1.5,2.975-3.75
		c0-2.37-1.154-3.87-2.975-3.87C118.456,768.469,117.286,769.969,117.286,772.279z"/>
	<path d="M129.211,770.104v7.56h-2.22v-10.935h2.279l4.278,7.439v-7.439h2.22v10.935h-2.22L129.211,770.104z"/>
	<path d="M142.364,777.664h-2.22v-9.06h-3.271v-1.875h8.644v1.875h-3.153V777.664z"/>
	<path d="M147.793,775.459l-0.725,2.205h-2.265l3.833-10.935h2.457l3.73,10.935h-2.279l-0.71-2.205H147.793z M149.82,769.31
		l-1.406,4.274h2.812L149.82,769.31z"/>
	<path d="M162.574,770.435c-0.296-1.335-1.021-1.966-2.309-1.966c-1.747,0-2.797,1.44-2.797,3.855c0,2.385,1.006,3.795,2.723,3.795
		c1.376,0,2.235-0.795,2.383-2.19h2.161c-0.133,2.505-1.909,4.08-4.603,4.08c-3.005,0-4.884-2.189-4.884-5.715
		c0-3.54,1.895-5.745,4.943-5.745c1.613,0,2.945,0.615,3.774,1.726c0.459,0.615,0.651,1.215,0.725,2.16H162.574z"/>
	<path d="M170.917,777.664h-2.22v-9.06h-3.271v-1.875h8.644v1.875h-3.153V777.664z"/>
	<path d="M181.524,777.664h-2.22v-10.935h2.22V777.664z"/>
	<path d="M185.71,770.104v7.56h-2.22v-10.935h2.279l4.278,7.439v-7.439h2.22v10.935h-2.22L185.71,770.104z"/>
	<path d="M196.481,777.664h-2.22v-10.935h7.578v1.875h-5.358v2.475h4.722v1.875h-4.722V777.664z"/>
	<path d="M211.441,768.064c0.962,1.035,1.51,2.58,1.51,4.29c0,1.545-0.577,3.135-1.51,4.14c-0.933,1.02-2.146,1.515-3.686,1.515
		c-1.539,0-2.753-0.495-3.686-1.515c-0.962-1.035-1.509-2.58-1.509-4.215s0.547-3.165,1.509-4.215
		c0.918-1.005,2.161-1.516,3.671-1.516C209.309,766.549,210.493,767.029,211.441,768.064z M204.78,772.279
		c0,2.31,1.169,3.81,2.975,3.81c1.776,0,2.975-1.5,2.975-3.75c0-2.37-1.154-3.87-2.975-3.87
		C205.949,768.469,204.78,769.969,204.78,772.279z"/>
</g>
<rect x="96.96" y="591.381" class="st2" width="615.02" height="59.672"/>
<g>
	<path d="M110.83,610.839l-0.725,2.205h-2.265l3.833-10.935h2.457l3.73,10.935h-2.279l-0.71-2.205H110.83z M112.858,604.689
		l-1.406,4.274h2.812L112.858,604.689z"/>
	<path d="M119.276,602.109h4.218c1.658,0,2.679,0.375,3.419,1.26c0.844,1.035,1.303,2.505,1.303,4.2c0,1.71-0.459,3.18-1.303,4.2
		c-0.74,0.885-1.776,1.274-3.419,1.274h-4.218V602.109z M123.495,611.169c1.672,0,2.501-1.185,2.501-3.585
		c0-2.414-0.829-3.6-2.501-3.6h-1.998v7.185H123.495z"/>
	<path d="M129.958,602.109h4.218c1.658,0,2.679,0.375,3.419,1.26c0.844,1.035,1.303,2.505,1.303,4.2c0,1.71-0.459,3.18-1.303,4.2
		c-0.74,0.885-1.776,1.274-3.419,1.274h-4.218V602.109z M134.176,611.169c1.672,0,2.501-1.185,2.501-3.585
		c0-2.414-0.829-3.6-2.501-3.6h-1.998v7.185H134.176z"/>
	<path d="M142.903,613.044h-2.22v-10.935h5.787c0.918,0,1.599,0.24,2.087,0.75c0.518,0.54,0.814,1.335,0.814,2.205
		c0,1.335-0.606,2.22-1.82,2.7c1.376,0.6,1.436,0.75,1.495,3.975c0,0.479,0.133,0.705,0.474,0.9v0.404h-2.383
		c-0.266-0.524-0.326-0.84-0.326-1.875c0-0.165,0-0.435,0.015-0.72v-0.45c0-0.899-0.415-1.29-1.376-1.29h-2.546V613.044z
		 M145.582,606.834c0.637,0,0.918-0.074,1.169-0.284c0.267-0.226,0.4-0.646,0.4-1.17c0-0.511-0.133-0.886-0.4-1.11
		c-0.281-0.225-0.533-0.285-1.169-0.285h-2.679v2.85H145.582z"/>
	<path d="M153.556,611.169h5.846v1.875h-8.066v-10.935h7.8v1.875h-5.58v2.475h5.166v1.875h-5.166V611.169z"/>
	<path d="M166.917,605.439c-0.074-1.11-0.858-1.71-2.265-1.71c-1.154,0-1.865,0.525-1.865,1.35c0,0.795,0.458,1.11,2.042,1.426
		l1.687,0.329c1.999,0.391,2.857,1.29,2.857,3.016c0,2.234-1.643,3.54-4.426,3.54c-2.753,0-4.336-1.275-4.47-3.615h2.161
		c0.074,1.17,0.917,1.814,2.427,1.814c1.347,0,2.176-0.555,2.176-1.47c0-0.885-0.548-1.305-2.028-1.59l-1.51-0.3
		c-2.19-0.42-3.034-1.245-3.034-2.94c0-2.13,1.495-3.359,4.085-3.359c2.724,0,4.218,1.245,4.233,3.51H166.917z"/>
</g>
<rect x="749.123" y="590.38" class="st2" width="170.488" height="59.672"/>
<g>
	<path d="M764.384,604.814c-0.296-1.335-1.021-1.966-2.309-1.966c-1.747,0-2.798,1.44-2.798,3.855c0,2.385,1.007,3.795,2.724,3.795
		c1.376,0,2.234-0.795,2.383-2.19h2.161c-0.134,2.505-1.909,4.08-4.604,4.08c-3.005,0-4.884-2.189-4.884-5.715
		c0-3.54,1.895-5.745,4.943-5.745c1.613,0,2.945,0.615,3.774,1.726c0.458,0.615,0.651,1.215,0.725,2.16H764.384z"/>
	<path d="M770.24,612.044h-2.221v-10.935h2.221V612.044z"/>
	<path d="M776.869,612.044h-2.221v-9.06h-3.271v-1.875h8.644v1.875h-3.152V612.044z"/>
	<path d="M786.648,612.044h-2.221v-4.05l-3.582-6.885h2.473l2.205,4.829l2.058-4.829h2.486l-3.419,6.885V612.044z"/>
</g>
<rect x="931.21" y="590.38" class="st2" width="170.488" height="59.672"/>
<g>
	<path d="M944.914,604.439c-0.074-1.11-0.858-1.71-2.265-1.71c-1.154,0-1.864,0.524-1.864,1.35c0,0.795,0.458,1.11,2.042,1.425
		l1.688,0.33c1.998,0.39,2.856,1.29,2.856,3.015c0,2.235-1.643,3.54-4.426,3.54c-2.753,0-4.336-1.275-4.47-3.615h2.161
		c0.074,1.17,0.918,1.815,2.428,1.815c1.347,0,2.176-0.555,2.176-1.47c0-0.886-0.548-1.306-2.028-1.59l-1.51-0.301
		c-2.19-0.42-3.034-1.244-3.034-2.939c0-2.13,1.495-3.36,4.085-3.36c2.724,0,4.219,1.245,4.233,3.511H944.914z"/>
	<path d="M953.48,612.044h-2.22v-9.06h-3.271v-1.875h8.645v1.875h-3.153V612.044z"/>
	<path d="M958.908,609.839l-0.726,2.205h-2.265l3.834-10.935h2.457l3.729,10.935h-2.279l-0.71-2.205H958.908z M960.936,603.689
		l-1.406,4.274h2.812L960.936,603.689z"/>
	<path d="M970.715,612.044h-2.22v-9.06h-3.271v-1.875h8.645v1.875h-3.153V612.044z"/>
	<path d="M977.327,610.169h5.847v1.875h-8.066v-10.935h7.8v1.875h-5.58v2.475h5.166v1.875h-5.166V610.169z"/>
</g>
<rect x="1112.338" y="590.38" class="st2" width="170.488" height="59.672"/>
<g>
	<path d="M1129.64,602.984l-5.507,7.185h5.507v1.875h-8.111v-1.875l5.521-7.185h-5.521v-1.875h8.111V602.984z"/>
	<path d="M1133.409,612.044h-2.22v-10.935h2.22V612.044z"/>
	<path d="M1137.715,612.044h-2.221v-10.935h4.766c2.25,0,3.479,1.2,3.479,3.39c0,2.22-1.272,3.645-3.256,3.645h-2.768V612.044z
		 M1139.786,606.268c1.185,0,1.732-0.524,1.732-1.649c0-1.11-0.548-1.635-1.732-1.635h-2.071v3.284H1139.786z"/>
	<path d="M1156.327,604.814c-0.296-1.335-1.021-1.966-2.309-1.966c-1.746,0-2.797,1.44-2.797,3.855c0,2.385,1.006,3.795,2.723,3.795
		c1.377,0,2.235-0.795,2.383-2.19h2.161c-0.133,2.505-1.909,4.08-4.603,4.08c-3.005,0-4.885-2.189-4.885-5.715
		c0-3.54,1.895-5.745,4.943-5.745c1.613,0,2.945,0.615,3.774,1.726c0.459,0.615,0.651,1.215,0.726,2.16H1156.327z"/>
	<path d="M1168.415,602.444c0.962,1.035,1.51,2.58,1.51,4.29c0,1.545-0.577,3.135-1.51,4.14c-0.933,1.02-2.146,1.515-3.686,1.515
		c-1.539,0-2.753-0.495-3.686-1.515c-0.962-1.035-1.509-2.58-1.509-4.215s0.547-3.165,1.509-4.215
		c0.918-1.005,2.161-1.516,3.671-1.516C1166.284,600.929,1167.468,601.409,1168.415,602.444z M1161.755,606.659
		c0,2.31,1.169,3.81,2.975,3.81c1.776,0,2.976-1.5,2.976-3.75c0-2.37-1.154-3.87-2.976-3.87
		C1162.924,602.849,1161.755,604.349,1161.755,606.659z"/>
	<path d="M1171.593,601.109h4.218c1.658,0,2.68,0.375,3.419,1.26c0.844,1.035,1.303,2.505,1.303,4.2c0,1.71-0.459,3.18-1.303,4.199
		c-0.739,0.885-1.775,1.275-3.419,1.275h-4.218V601.109z M1175.811,610.169c1.673,0,2.502-1.186,2.502-3.585
		c0-2.415-0.829-3.6-2.502-3.6h-1.998v7.185H1175.811z"/>
	<path d="M1184.524,610.169h5.847v1.875h-8.066v-10.935h7.8v1.875h-5.58v2.475h5.166v1.875h-5.166V610.169z"/>
</g>
<g>
	<path class="st2" d="M1161.684,774.366c-0.101-1.521-1.175-2.343-3.101-2.343c-1.58,0-2.553,0.72-2.553,1.85
		c0,1.09,0.628,1.521,2.797,1.953l2.31,0.452c2.735,0.534,3.911,1.768,3.911,4.131c0,3.062-2.25,4.851-6.059,4.851
		c-3.77,0-5.938-1.747-6.12-4.953h2.958c0.102,1.603,1.257,2.486,3.324,2.486c1.844,0,2.979-0.76,2.979-2.014
		c0-1.213-0.75-1.788-2.776-2.179l-2.067-0.411c-2.998-0.575-4.153-1.706-4.153-4.028c0-2.919,2.046-4.604,5.593-4.604
		c3.729,0,5.775,1.706,5.795,4.81H1161.684z"/>
	<path class="st2" d="M1178.991,769.804v10.153c0,1.686-0.446,2.878-1.439,3.782c-1.074,0.986-2.634,1.521-4.417,1.521
		s-3.344-0.534-4.418-1.521c-0.993-0.904-1.438-2.097-1.438-3.782v-10.153h3.039v10.153c0,1.809,0.912,2.672,2.817,2.672
		c1.904,0,2.816-0.863,2.816-2.672v-10.153H1178.991z"/>
	<path class="st2" d="M1184.747,784.787h-3.039v-14.983h4.539l2.674,11.921l2.594-11.921h4.58v14.983h-3.039v-11.675l-2.614,11.675
		h-3.04l-2.654-11.675V784.787z"/>
	<path class="st2" d="M1198.913,769.804h6.586c1.581,0,2.614,0.329,3.485,1.089c0.831,0.74,1.338,1.809,1.338,2.857
		c0,1.274-0.567,2.138-2.026,3.083c1.682,0.986,2.451,2.158,2.451,3.638c0,1.213-0.566,2.467-1.459,3.228
		c-0.891,0.76-2.025,1.089-3.729,1.089h-6.646V769.804z M1201.953,775.764h3.303c1.419,0,2.148-0.575,2.148-1.705
		c0-1.11-0.729-1.686-2.148-1.686h-3.303V775.764z M1201.953,782.218h3.627c1.479,0,2.249-0.657,2.249-1.932
		c0-1.295-0.77-1.953-2.249-1.953h-3.627V782.218z"/>
	<path class="st2" d="M1216.2,784.787h-3.04v-14.983h3.04V784.787z"/>
	<path class="st2" d="M1225.279,784.787h-3.04v-12.414h-4.479v-2.569h11.834v2.569h-4.315V784.787z"/>
</g>
</svg>