<!-- Generator: Adobe Illustrator 22.1.0, SVG Export Plug-In  -->
<svg version="1.1"
	 xmlns="http://www.w3.org/2000/svg" xmlns:xlink="http://www.w3.org/1999/xlink" xmlns:a="http://ns.adobe.com/AdobeSVGViewerExtensions/3.0/"
	 x="0px" y="0px" width="1183.703px" height="239.525px" viewBox="0 0 1183.703 239.525"
	 style="enable-background:new 0 0 1183.703 239.525;" xml:space="preserve">
<style type="text/css">
	.st0{fill:#919396;}
	.st1{fill:#5F6060;}
	.st2{font-family:'AcuminPro-Regular';}
	.st3{font-size:21px;}
	.st4{letter-spacing:1;}
</style>
<defs>
</defs>
<g id="_x5B_YOUR_IMAGE_HERE_3_x5D__1_">
	<rect x="823.459" class="st0" width="360.244" height="239.525"/>
	<g>
		<path class="st1" d="M971.243,95.694c0.881-0.147,2.036-0.272,3.506-0.272c1.806,0,3.129,0.42,3.969,1.176
			c0.776,0.672,1.238,1.7,1.238,2.96c0,1.28-0.378,2.288-1.092,3.023c-0.966,1.028-2.541,1.554-4.325,1.554
			c-0.546,0-1.05-0.021-1.47-0.126v5.669h-1.826V95.694z M973.069,102.517c0.398,0.105,0.902,0.147,1.512,0.147
			c2.205,0,3.549-1.071,3.549-3.023c0-1.868-1.323-2.771-3.339-2.771c-0.798,0-1.407,0.063-1.722,0.147V102.517z"/>
		<path class="st1" d="M984.758,95.526v5.921h6.845v-5.921h1.848v14.151h-1.848v-6.635h-6.845v6.635h-1.827V95.526H984.758z"/>
		<path class="st1" d="M1009.684,102.454c0,4.871-2.96,7.453-6.571,7.453c-3.737,0-6.362-2.896-6.362-7.18
			c0-4.494,2.793-7.434,6.572-7.434C1007.186,95.294,1009.684,98.255,1009.684,102.454z M998.704,102.685
			c0,3.023,1.638,5.732,4.514,5.732c2.898,0,4.535-2.666,4.535-5.879c0-2.813-1.469-5.753-4.514-5.753
			C1000.216,96.785,998.704,99.577,998.704,102.685z"/>
		<path class="st1" d="M1015.296,97.079h-4.305v-1.554h10.479v1.554h-4.326v12.598h-1.848V97.079z"/>
		<path class="st1" d="M1035.6,102.454c0,4.871-2.959,7.453-6.57,7.453c-3.738,0-6.363-2.896-6.363-7.18
			c0-4.494,2.793-7.434,6.572-7.434C1033.102,95.294,1035.6,98.255,1035.6,102.454z M1024.62,102.685
			c0,3.023,1.639,5.732,4.514,5.732c2.898,0,4.535-2.666,4.535-5.879c0-2.813-1.469-5.753-4.514-5.753
			C1026.132,96.785,1024.62,99.577,1024.62,102.685z"/>
		<path class="st1" d="M982.354,128.647v5.921h6.845v-5.921h1.848v14.151h-1.848v-6.635h-6.845v6.635h-1.826v-14.151H982.354z"/>
		<path class="st1" d="M1002.433,136.163h-5.501v5.102h6.131v1.533h-7.957v-14.151h7.643v1.532h-5.816v4.473h5.501V136.163z"/>
		<path class="st1" d="M1006.103,128.835c0.924-0.188,2.247-0.293,3.507-0.293c1.952,0,3.212,0.356,4.094,1.154
			c0.714,0.63,1.113,1.596,1.113,2.688c0,1.869-1.176,3.107-2.667,3.611v0.062c1.092,0.379,1.743,1.387,2.079,2.855
			c0.461,1.975,0.797,3.339,1.092,3.885h-1.891c-0.23-0.398-0.545-1.617-0.944-3.381c-0.42-1.952-1.176-2.688-2.835-2.75h-1.721
			v6.131h-1.827V128.835z M1007.93,135.281h1.868c1.952,0,3.191-1.071,3.191-2.688c0-1.827-1.323-2.624-3.255-2.646
			c-0.881,0-1.512,0.084-1.805,0.168V135.281z"/>
		<path class="st1" d="M1025.686,136.163h-5.501v5.102h6.132v1.533h-7.959v-14.151h7.643v1.532h-5.815v4.473h5.501V136.163z"/>
	</g>
</g>
<g id="_x5B_YOUR_IMAGE_HERE_2_x5D__1_">
	<rect x="411.729" class="st0" width="360.244" height="239.525"/>
	<g>
		<path class="st1" d="M559.513,95.694c0.883-0.147,2.037-0.272,3.507-0.272c1.806,0,3.128,0.42,3.968,1.176
			c0.777,0.672,1.239,1.7,1.239,2.96c0,1.28-0.378,2.288-1.092,3.023c-0.966,1.028-2.54,1.554-4.325,1.554
			c-0.546,0-1.05-0.021-1.47-0.126v5.669h-1.827V95.694z M561.34,102.517c0.399,0.105,0.903,0.147,1.512,0.147
			c2.204,0,3.548-1.071,3.548-3.023c0-1.868-1.322-2.771-3.338-2.771c-0.798,0-1.406,0.063-1.722,0.147V102.517z"/>
		<path class="st1" d="M573.028,95.526v5.921h6.845v-5.921h1.848v14.151h-1.848v-6.635h-6.845v6.635h-1.826V95.526H573.028z"/>
		<path class="st1" d="M597.956,102.454c0,4.871-2.961,7.453-6.572,7.453c-3.737,0-6.361-2.896-6.361-7.18
			c0-4.494,2.792-7.434,6.571-7.434C595.457,95.294,597.956,98.255,597.956,102.454z M586.974,102.685
			c0,3.023,1.638,5.732,4.515,5.732c2.896,0,4.535-2.666,4.535-5.879c0-2.813-1.471-5.753-4.515-5.753
			C588.486,96.785,586.974,99.577,586.974,102.685z"/>
		<path class="st1" d="M603.566,97.079h-4.304v-1.554h10.477v1.554h-4.325v12.598h-1.848V97.079z"/>
		<path class="st1" d="M623.872,102.454c0,4.871-2.961,7.453-6.572,7.453c-3.738,0-6.361-2.896-6.361-7.18
			c0-4.494,2.791-7.434,6.57-7.434C621.372,95.294,623.872,98.255,623.872,102.454z M612.889,102.685
			c0,3.023,1.639,5.732,4.516,5.732c2.896,0,4.535-2.666,4.535-5.879c0-2.813-1.471-5.753-4.516-5.753
			C614.401,96.785,612.889,99.577,612.889,102.685z"/>
		<path class="st1" d="M570.625,128.647v5.921h6.845v-5.921h1.848v14.151h-1.848v-6.635h-6.845v6.635h-1.827v-14.151H570.625z"/>
		<path class="st1" d="M590.704,136.163h-5.501v5.102h6.131v1.533h-7.958v-14.151h7.643v1.532h-5.815v4.473h5.501V136.163z"/>
		<path class="st1" d="M594.374,128.835c0.924-0.188,2.246-0.293,3.506-0.293c1.953,0,3.213,0.356,4.095,1.154
			c0.714,0.63,1.112,1.596,1.112,2.688c0,1.869-1.176,3.107-2.666,3.611v0.062c1.092,0.379,1.742,1.387,2.078,2.855
			c0.463,1.975,0.799,3.339,1.092,3.885h-1.889c-0.231-0.398-0.547-1.617-0.945-3.381c-0.42-1.952-1.176-2.688-2.834-2.75H596.2
			v6.131h-1.826V128.835z M596.2,135.281h1.869c1.953,0,3.191-1.071,3.191-2.688c0-1.827-1.322-2.624-3.254-2.646
			c-0.883,0-1.512,0.084-1.807,0.168V135.281z"/>
		<path class="st1" d="M613.956,136.163h-5.5v5.102h6.131v1.533h-7.957v-14.151h7.643v1.532h-5.816v4.473h5.5V136.163z"/>
	</g>
</g>
<g id="_x5B_YOUR_IMAGE_HERE_1_x5D__1_">
	<rect class="st0" width="360.244" height="239.525"/>
	<g>
		<path class="st1" d="M147.784,95.694c0.881-0.147,2.036-0.272,3.506-0.272c1.806,0,3.129,0.42,3.969,1.176
			c0.776,0.672,1.238,1.7,1.238,2.96c0,1.28-0.378,2.288-1.092,3.023c-0.966,1.028-2.541,1.554-4.325,1.554
			c-0.546,0-1.05-0.021-1.47-0.126v5.669h-1.826V95.694z M149.61,102.517c0.398,0.105,0.902,0.147,1.512,0.147
			c2.205,0,3.549-1.071,3.549-3.023c0-1.868-1.323-2.771-3.339-2.771c-0.798,0-1.407,0.063-1.722,0.147V102.517z"/>
		<path class="st1" d="M161.299,95.526v5.921h6.845v-5.921h1.848v14.151h-1.848v-6.635h-6.845v6.635h-1.827V95.526H161.299z"/>
		<path class="st1" d="M186.225,102.454c0,4.871-2.96,7.453-6.571,7.453c-3.737,0-6.362-2.896-6.362-7.18
			c0-4.494,2.793-7.434,6.572-7.434C183.727,95.294,186.225,98.255,186.225,102.454z M175.245,102.685
			c0,3.023,1.638,5.732,4.514,5.732c2.898,0,4.535-2.666,4.535-5.879c0-2.813-1.469-5.753-4.514-5.753
			C176.757,96.785,175.245,99.577,175.245,102.685z"/>
		<path class="st1" d="M191.837,97.079h-4.305v-1.554h10.479v1.554h-4.326v12.598h-1.848V97.079z"/>
		<path class="st1" d="M212.141,102.454c0,4.871-2.959,7.453-6.57,7.453c-3.738,0-6.363-2.896-6.363-7.18
			c0-4.494,2.793-7.434,6.572-7.434C209.643,95.294,212.141,98.255,212.141,102.454z M201.161,102.685
			c0,3.023,1.639,5.732,4.514,5.732c2.898,0,4.535-2.666,4.535-5.879c0-2.813-1.469-5.753-4.514-5.753
			C202.673,96.785,201.161,99.577,201.161,102.685z"/>
		<path class="st1" d="M158.895,128.647v5.921h6.845v-5.921h1.848v14.151h-1.848v-6.635h-6.845v6.635h-1.826v-14.151H158.895z"/>
		<path class="st1" d="M178.974,136.163h-5.501v5.102h6.131v1.533h-7.957v-14.151h7.643v1.532h-5.816v4.473h5.501V136.163z"/>
		<path class="st1" d="M182.644,128.835c0.924-0.188,2.247-0.293,3.507-0.293c1.952,0,3.212,0.356,4.094,1.154
			c0.714,0.63,1.113,1.596,1.113,2.688c0,1.869-1.176,3.107-2.667,3.611v0.062c1.092,0.379,1.743,1.387,2.079,2.855
			c0.461,1.975,0.797,3.339,1.092,3.885h-1.891c-0.23-0.398-0.545-1.617-0.944-3.381c-0.42-1.952-1.176-2.688-2.835-2.75h-1.721
			v6.131h-1.827V128.835z M184.472,135.281h1.868c1.952,0,3.191-1.071,3.191-2.688c0-1.827-1.323-2.624-3.255-2.646
			c-0.881,0-1.512,0.084-1.805,0.168V135.281z"/>
		<path class="st1" d="M202.227,136.163h-5.501v5.102h6.132v1.533h-7.959v-14.151h7.643v1.532h-5.815v4.473h5.501V136.163z"/>
	</g>
</g>
</svg>