<!-- Generator: Adobe Illustrator 22.1.0, SVG Export Plug-In  -->
<svg version="1.1"
	 xmlns="http://www.w3.org/2000/svg" xmlns:xlink="http://www.w3.org/1999/xlink" xmlns:a="http://ns.adobe.com/AdobeSVGViewerExtensions/3.0/"
	 x="0px" y="0px" width="147.318px" height="138.912px" viewBox="0 0 147.318 138.912"
	 style="enable-background:new 0 0 147.318 138.912;" xml:space="preserve">
<style type="text/css">
	.st0{fill:#FFFFFF;}
	.st1{fill:#CA1627;}
	.st2{fill:#B8BABC;}
	.st3{fill:#143A62;}
</style>
<defs>
</defs>
<path class="st0" d="M102.27,106.948"/>
<polygon class="st1" points="75.381,112.116 83.421,117.79 102.463,103.625 99.39,94.47 "/>
<path class="st1" d="M105.159,109.564c-0.037-0.132,0.012-0.27,0.124-0.349l1.983-1.408c0.131-0.093,0.173-0.265,0.1-0.41
	l-1.236-2.444c-0.096-0.189-0.344-0.251-0.515-0.128l-21.423,15.403c-0.163,0.117-0.18,0.349-0.037,0.495l1.818,1.845
	c0.121,0.122,0.314,0.141,0.452,0.043l1.842-1.308c0.119-0.084,0.282-0.084,0.403,0.002l23.782,16.676
	c0.263,0.184,0.611-0.045,0.527-0.347L105.159,109.564z M98.962,116.211l4.288-3.061l2.662,8.262L98.962,116.211z"/>
<polygon class="st2" points="43.731,95.3 41.038,104.669 61.33,117.584 69.109,111.655 "/>
<path class="st2" d="M61.164,120.96l-22.33-14.685c-0.17-0.112-0.4-0.05-0.49,0.132l-1.15,2.309
	c-0.076,0.153-0.027,0.339,0.116,0.434l1.904,1.268c0.123,0.082,0.179,0.233,0.139,0.375l-7.828,27.687
	c-0.086,0.306,0.257,0.552,0.519,0.372l24.386-16.717c0.114-0.078,0.265-0.079,0.38-0.003l2.05,1.365
	c0.136,0.09,0.317,0.072,0.431-0.045l1.93-1.97C61.37,121.328,61.343,121.077,61.164,120.96z M38.078,121.792l2.584-8.464
	l4.419,3.053L38.078,121.792z"/>
<g>
	<path class="st3" d="M72.83,90.757c-6.249,1.339-5.182,10.415-4.572,13.752l4.177,2.836l8.044-5.965
		C70.452,98.71,72.83,90.757,72.83,90.757z"/>
</g>
<path class="st0" d="M138.334,52.002l-46.238-0.941L76.26,7.825L73.393,0l-2.779,7.857L55.53,50.503L8.475,51.254L0,51.389
	l6.673,5.226l38.651,30.269l0.638,0.499l0.802,0.111c0.41,0.057,0.874,0.129,1.374,0.207c1.853,0.288,4.159,0.647,6.252,0.647
	c2.35,0,4.014-0.448,5.238-1.411c3.872-3.046,4.288-4.707,4.267-9.945c-0.005-1.149-0.085-2.189-0.192-3.144
	c1.213,1.51,3.001,2.368,4.962,2.368c2.838,0,5.328-1.802,6.197-4.484c1.947-6.01,0.634-14.583-0.826-20.761
	c1.844,1.843,3.202,3.931,4.155,5.724c2.449,4.61,3.278,9.136,3.243,11.611c-0.008,0.577-0.018,1.126-0.028,1.647
	c-0.105,5.76-0.175,9.565,3.842,12.404c1.664,1.177,3.414,1.773,5.199,1.773c1.743,0,3.241-0.556,4.475-1.315
	c0,0.441-0.024,0.802-0.043,1.017l-0.573,6.523l5.314-3.826l40.405-29.094l7.292-5.251L138.334,52.002z"/>
<g>
	<g>
		<path class="st3" d="M58.035,84.617c2.873-2.26,3.141-2.83,3.122-7.575c-0.027-6.578-2.835-9.275,2.29-18.511
			c0,0,0.055,7.444,1.72,11.466c0.297,0.717,0.642,1.326,1.009,1.841c1.632,2.294,5.227,1.685,6.094-0.993
			c3.028-9.35-3.013-26.592-3.013-26.592c10.911,3.927,15.53,17.556,15.439,24.133c-0.091,6.558-0.438,9.451,2.546,11.561
			c5.513,3.897,9.408-2.767,9.408-2.767c1.656,2.277,1.608,5.483,1.479,6.954l40.405-29.094l-48.289-0.982L73.704,8.895
			l-15.78,44.612L8.784,54.292l38.651,30.269C50.401,84.97,56.071,86.161,58.035,84.617z"/>
	</g>
</g>
</svg>