<!-- Generator: Adobe Illustrator 22.1.0, SVG Export Plug-In  -->
<svg version="1.1"
	 xmlns="http://www.w3.org/2000/svg" xmlns:xlink="http://www.w3.org/1999/xlink" xmlns:a="http://ns.adobe.com/AdobeSVGViewerExtensions/3.0/"
	 x="0px" y="0px" width="112.219px" height="27px" viewBox="0 0 112.219 27" style="enable-background:new 0 0 112.219 27;"
	 xml:space="preserve">
<style type="text/css">
	.st0{fill:url(#SVGID_1_);}
	.st1{fill:#FFFFFF;}
	.st2{fill:url(#SVGID_2_);}
	.st3{font-family:'NimbusSanL-Reg';}
	.st4{font-size:12.6562px;}
</style>
<defs>
</defs>
<g>
	<linearGradient id="SVGID_1_" gradientUnits="userSpaceOnUse" x1="0" y1="13.5" x2="112.2188" y2="13.5">
		<stop  offset="0" style="stop-color:#ED353D"/>
		<stop  offset="1" style="stop-color:#B8181D"/>
	</linearGradient>
	<path class="st0" d="M100.219,27H12C5.4,27,0,21.6,0,15v-3C0,5.4,5.4,0,12,0h88.219c6.6,0,12,5.4,12,12v3
		C112.219,21.6,106.819,27,100.219,27z"/>
	<g>
		<path class="st1" d="M15.688,17.525h4.554v1.037h-5.73V9.341h1.177V17.525z"/>
		<path class="st1" d="M22.852,17.525h5.439v1.037h-6.615V9.341h6.388v1.037h-5.212v2.947h5.022v1.038h-5.022V17.525z"/>
		<path class="st1" d="M31.433,15.792l-0.974,2.771h-1.253l3.289-9.222h1.518l3.238,9.222h-1.315l-0.948-2.771H31.433z
			 M33.241,10.605l-1.518,4.2h2.935L33.241,10.605z"/>
		<path class="st1" d="M39.785,18.562h-1.176V9.341h4.25c1.821,0,2.808,0.873,2.808,2.467c0,1.062-0.417,1.683-1.454,2.201
			c0.999,0.43,1.239,0.886,1.252,2.403c0.025,1.227,0.114,1.556,0.557,1.859v0.291h-1.43c-0.164-0.38-0.266-0.937-0.266-1.505
			l0.013-0.822c0-1.139-0.468-1.645-1.518-1.645h-3.036V18.562z M42.632,13.554c1.252,0,1.809-0.494,1.809-1.595
			c0-0.544-0.164-0.961-0.48-1.227c-0.291-0.253-0.671-0.354-1.328-0.354h-2.847v3.176H42.632z"/>
		<path class="st1" d="M54.679,18.562h-1.328l-4.77-7.476v7.476h-1.113V9.341h1.278l4.819,7.539V9.341h1.113V18.562z"/>
		<path class="st1" d="M63.844,18.562l-2.619-7.729v7.729h-1.113V9.341h1.632l2.732,8.032l2.682-8.032h1.632v9.222h-1.113v-7.729
			l-2.593,7.729H63.844z"/>
		<path class="st1" d="M79.092,14.098c0,1.505-0.595,2.935-1.594,3.782c-0.746,0.632-1.732,0.974-2.858,0.974
			c-2.669,0-4.453-1.936-4.453-4.832c0-2.884,1.797-4.832,4.44-4.832C77.334,9.189,79.092,11.125,79.092,14.098z M71.363,14.021
			c0,2.276,1.303,3.795,3.276,3.795c1.948,0,3.276-1.519,3.276-3.744c0-2.341-1.291-3.846-3.289-3.846
			C72.666,10.227,71.363,11.744,71.363,14.021z"/>
		<path class="st1" d="M81.905,18.562h-1.176V9.341h4.25c1.821,0,2.808,0.873,2.808,2.467c0,1.062-0.417,1.683-1.454,2.201
			c0.999,0.43,1.239,0.886,1.252,2.403c0.025,1.227,0.114,1.556,0.557,1.859v0.291h-1.43c-0.164-0.38-0.266-0.937-0.266-1.505
			l0.013-0.822c0-1.139-0.468-1.645-1.518-1.645h-3.036V18.562z M84.752,13.554c1.252,0,1.809-0.494,1.809-1.595
			c0-0.544-0.164-0.961-0.48-1.227c-0.291-0.253-0.671-0.354-1.328-0.354h-2.847v3.176H84.752z"/>
		<path class="st1" d="M90.853,17.525h5.439v1.037h-6.615V9.341h6.388v1.037h-5.212v2.947h5.022v1.038h-5.022V17.525z"/>
	</g>
</g>
</svg>