<!-- Generator: Adobe Illustrator 22.1.0, SVG Export Plug-In  -->
<svg version="1.1"
	 xmlns="http://www.w3.org/2000/svg" xmlns:xlink="http://www.w3.org/1999/xlink" xmlns:a="http://ns.adobe.com/AdobeSVGViewerExtensions/3.0/"
	 x="0px" y="0px" width="1366px" height="281.201px" viewBox="0 0 1366 281.201" style="enable-background:new 0 0 1366 281.201;"
	 xml:space="preserve">
<style type="text/css">
	.st0{opacity:0.9;fill:#003864;}
	.st1{fill:none;}
	.st2{fill:#FFFFFF;}
	.st3{fill:url(#SVGID_1_);}
	.st4{fill:url(#SVGID_2_);}
	.st5{opacity:0.75;fill:#EFEFEF;}
	.st6{font-family:'AcuminPro-Bold';}
	.st7{font-size:19px;}
	.st8{font-family:'AcuminPro-Regular';}
	.st9{letter-spacing:1;}
	.st10{font-family:'Roboto-Black';}
	.st11{font-size:24px;}
	.st12{letter-spacing:2;}
	.st13{fill:url(#SVGID_3_);}
	.st14{fill:url(#SVGID_4_);}
</style>
<defs>
</defs>
<rect id="Blue_Box_1_" class="st0" width="1366" height="281.201"/>
<g>
	<rect x="719.198" y="104.328" class="st1" width="353.931" height="139.903"/>
	<path class="st2" d="M811.148,105.014h1.652v8.568c0,3.4-1.672,4.445-3.875,4.445c-0.607,0-1.349-0.133-1.767-0.305l0.247-1.349
		c0.342,0.133,0.836,0.247,1.387,0.247c1.481,0,2.355-0.665,2.355-3.172V105.014z"/>
	<path class="st2" d="M818.16,105.014v7.58c0,2.869,1.271,4.084,2.982,4.084c1.899,0,3.115-1.254,3.115-4.084v-7.58h1.672v7.466
		c0,3.933-2.07,5.548-4.845,5.548c-2.622,0-4.597-1.502-4.597-5.472v-7.542H818.16z"/>
	<path class="st2" d="M832.561,117.819l-4.179-12.805h1.786l1.994,6.307c0.551,1.729,1.025,3.287,1.367,4.787h0.039
		c0.36-1.48,0.893-3.096,1.463-4.768l2.165-6.326h1.767l-4.578,12.805H832.561z"/>
	<path class="st2" d="M847.932,111.815h-4.977v4.617h5.547v1.387h-7.2v-12.805h6.915v1.387h-5.262v4.047h4.977V111.815z"/>
	<path class="st2" d="M851.6,117.819v-12.805h1.805l4.104,6.479c0.949,1.5,1.689,2.85,2.298,4.16l0.038-0.02
		c-0.152-1.709-0.189-3.268-0.189-5.262v-5.357h1.557v12.805h-1.671l-4.065-6.498c-0.893-1.424-1.748-2.887-2.394-4.273
		l-0.058,0.019c0.096,1.614,0.133,3.153,0.133,5.281v5.472H851.6z"/>
	<path class="st2" d="M866.704,105.014v12.805h-1.653v-12.805H866.704z"/>
	<path class="st2" d="M870.543,105.014h1.652v11.418h5.471v1.387h-7.123V105.014z"/>
	<path class="st2" d="M887.09,111.815h-4.977v4.617h5.547v1.387h-7.2v-12.805h6.915v1.387h-5.262v4.047h4.977V111.815z"/>
	<path class="st2" d="M895.508,115.805c0.74,0.455,1.823,0.836,2.963,0.836c1.691,0,2.679-0.894,2.679-2.186
		c0-1.196-0.684-1.881-2.413-2.545c-2.09-0.741-3.381-1.824-3.381-3.629c0-1.994,1.652-3.477,4.141-3.477
		c1.312,0,2.262,0.305,2.831,0.627l-0.456,1.349c-0.418-0.228-1.272-0.608-2.432-0.608c-1.748,0-2.412,1.045-2.412,1.92
		c0,1.196,0.779,1.785,2.545,2.469c2.166,0.836,3.268,1.881,3.268,3.762c0,1.976-1.463,3.686-4.482,3.686
		c-1.235,0-2.584-0.361-3.268-0.816L895.508,115.805z"/>
	<path class="st2" d="M908.484,106.42h-3.895v-1.406h9.479v1.406h-3.912v11.398h-1.672V106.42z"/>
	<path class="st2" d="M918.098,105.014v7.58c0,2.869,1.273,4.084,2.982,4.084c1.9,0,3.116-1.254,3.116-4.084v-7.58h1.671v7.466
		c0,3.933-2.07,5.548-4.844,5.548c-2.621,0-4.598-1.502-4.598-5.472v-7.542H918.098z"/>
	<path class="st2" d="M929.688,105.185c1.008-0.151,2.204-0.266,3.516-0.266c2.374,0,4.064,0.551,5.186,1.596
		c1.14,1.045,1.805,2.526,1.805,4.597c0,2.09-0.646,3.8-1.843,4.979c-1.196,1.196-3.173,1.842-5.661,1.842
		c-1.178,0-2.166-0.057-3.002-0.152V105.185z M931.341,116.507c0.418,0.076,1.026,0.095,1.671,0.095
		c3.534,0,5.453-1.975,5.453-5.433c0.019-3.021-1.691-4.939-5.187-4.939c-0.854,0-1.501,0.076-1.938,0.171V116.507z"/>
	<path class="st2" d="M949.922,111.815h-4.977v4.617h5.547v1.387h-7.2v-12.805h6.915v1.387h-5.262v4.047h4.977V111.815z"/>
	<path class="st2" d="M953.59,117.819v-12.805h1.805l4.104,6.479c0.949,1.5,1.689,2.85,2.298,4.16l0.038-0.02
		c-0.152-1.709-0.189-3.268-0.189-5.262v-5.357h1.557v12.805h-1.671l-4.065-6.498c-0.893-1.424-1.748-2.887-2.394-4.273
		l-0.058,0.019c0.096,1.614,0.133,3.153,0.133,5.281v5.472H953.59z"/>
	<path class="st2" d="M969.473,106.42h-3.895v-1.406h9.48v1.406h-3.914v11.398h-1.672V106.42z"/>
	<path class="st2" d="M977.093,115.805c0.741,0.455,1.823,0.836,2.964,0.836c1.69,0,2.678-0.894,2.678-2.186
		c0-1.196-0.684-1.881-2.412-2.545c-2.09-0.741-3.381-1.824-3.381-3.629c0-1.994,1.652-3.477,4.141-3.477
		c1.311,0,2.261,0.305,2.83,0.627l-0.455,1.349c-0.418-0.228-1.273-0.608-2.432-0.608c-1.748,0-2.413,1.045-2.413,1.92
		c0,1.196,0.779,1.785,2.546,2.469c2.166,0.836,3.268,1.881,3.268,3.762c0,1.976-1.463,3.686-4.483,3.686
		c-1.235,0-2.583-0.361-3.268-0.816L977.093,115.805z"/>
	<path class="st2" d="M734.617,151.819v-5.434l-4.046-7.371h1.881l1.805,3.533c0.493,0.969,0.874,1.748,1.272,2.641h0.038
		c0.36-0.836,0.798-1.672,1.292-2.641l1.843-3.533h1.88l-4.293,7.352v5.453H734.617z"/>
	<path class="st2" d="M749.816,147.145c0,3.4-2.355,4.883-4.578,4.883c-2.488,0-4.407-1.824-4.407-4.73
		c0-3.078,2.014-4.883,4.56-4.883C748.031,142.414,749.816,144.333,749.816,147.145z M742.521,147.24
		c0,2.014,1.159,3.533,2.793,3.533c1.596,0,2.793-1.501,2.793-3.572c0-1.558-0.779-3.533-2.755-3.533
		S742.521,145.492,742.521,147.24z"/>
	<path class="st2" d="M760.57,149.311c0,0.949,0.02,1.785,0.076,2.508h-1.481l-0.095-1.502h-0.038
		c-0.437,0.742-1.405,1.711-3.04,1.711c-1.443,0-3.172-0.799-3.172-4.027v-5.377h1.672v5.092c0,1.748,0.531,2.926,2.051,2.926
		c1.121,0,1.9-0.779,2.204-1.521c0.095-0.247,0.151-0.551,0.151-0.854v-5.643h1.672V149.311z"/>
	<path class="st2" d="M764.296,145.492c0-1.083-0.019-2.014-0.075-2.869h1.462l0.058,1.805h0.076
		c0.418-1.234,1.424-2.014,2.545-2.014c0.189,0,0.323,0.02,0.475,0.057v1.577c-0.17-0.038-0.342-0.057-0.569-0.057
		c-1.179,0-2.014,0.893-2.241,2.146c-0.039,0.228-0.076,0.494-0.076,0.778v4.902h-1.653V145.492z"/>
	<path class="st2" d="M776.437,145.625c0-1.178-0.038-2.128-0.075-3.002h1.5l0.076,1.577h0.038c0.684-1.121,1.767-1.786,3.267-1.786
		c2.223,0,3.895,1.881,3.895,4.674c0,3.305-2.014,4.939-4.179,4.939c-1.216,0-2.28-0.532-2.831-1.444h-0.037v4.996h-1.653V145.625z
		 M778.09,148.075c0,0.247,0.037,0.476,0.076,0.685c0.303,1.158,1.311,1.956,2.507,1.956c1.767,0,2.792-1.443,2.792-3.552
		c0-1.844-0.969-3.42-2.734-3.42c-1.141,0-2.204,0.816-2.527,2.07c-0.057,0.209-0.113,0.456-0.113,0.684V148.075z"/>
	<path class="st2" d="M793.289,151.819l-0.133-1.159h-0.058c-0.513,0.722-1.501,1.368-2.812,1.368c-1.861,0-2.812-1.312-2.812-2.641
		c0-2.223,1.976-3.439,5.528-3.42v-0.189c0-0.76-0.209-2.129-2.09-2.129c-0.855,0-1.748,0.267-2.394,0.685l-0.38-1.103
		c0.76-0.493,1.861-0.816,3.021-0.816c2.812,0,3.495,1.919,3.495,3.762v3.438c0,0.798,0.038,1.577,0.152,2.204H793.289z
		 M793.041,147.125c-1.823-0.037-3.895,0.285-3.895,2.071c0,1.083,0.723,1.596,1.578,1.596c1.196,0,1.956-0.76,2.223-1.538
		c0.057-0.172,0.094-0.361,0.094-0.533V147.125z"/>
	<path class="st2" d="M798.076,150.108c0.494,0.324,1.369,0.666,2.204,0.666c1.216,0,1.786-0.608,1.786-1.368
		c0-0.798-0.475-1.235-1.71-1.69c-1.653-0.59-2.432-1.501-2.432-2.604c0-1.481,1.196-2.697,3.173-2.697
		c0.931,0,1.748,0.266,2.26,0.57l-0.418,1.216c-0.36-0.228-1.025-0.532-1.88-0.532c-0.988,0-1.539,0.57-1.539,1.254
		c0,0.76,0.551,1.102,1.748,1.558c1.596,0.608,2.413,1.405,2.413,2.774c0,1.614-1.254,2.754-3.439,2.754
		c-1.006,0-1.938-0.247-2.584-0.627L798.076,150.108z"/>
	<path class="st2" d="M808.793,139.983v2.641h2.393v1.273h-2.393v4.958c0,1.14,0.322,1.786,1.254,1.786
		c0.437,0,0.76-0.058,0.969-0.115l0.076,1.254c-0.324,0.134-0.836,0.229-1.482,0.229c-0.779,0-1.406-0.247-1.805-0.703
		c-0.475-0.494-0.646-1.311-0.646-2.394v-5.015h-1.424v-1.273h1.424v-2.203L808.793,139.983z"/>
	<path class="st2" d="M826.937,138.33v11.113c0,0.816,0.019,1.748,0.076,2.375h-1.501l-0.076-1.596h-0.037
		c-0.514,1.025-1.635,1.805-3.135,1.805c-2.223,0-3.934-1.881-3.934-4.674c-0.018-3.059,1.881-4.939,4.123-4.939
		c1.406,0,2.355,0.665,2.773,1.406h0.038v-5.49H826.937z M825.265,146.365c0-0.209-0.019-0.494-0.075-0.703
		c-0.248-1.062-1.16-1.938-2.413-1.938c-1.729,0-2.755,1.52-2.755,3.553c0,1.861,0.912,3.4,2.717,3.4
		c1.121,0,2.146-0.74,2.451-1.994c0.057-0.229,0.075-0.456,0.075-0.723V146.365z"/>
	<path class="st2" d="M838.982,147.145c0,3.4-2.355,4.883-4.578,4.883c-2.488,0-4.408-1.824-4.408-4.73
		c0-3.078,2.015-4.883,4.561-4.883C837.197,142.414,838.982,144.333,838.982,147.145z M831.688,147.24
		c0,2.014,1.158,3.533,2.793,3.533c1.596,0,2.793-1.501,2.793-3.572c0-1.558-0.779-3.533-2.756-3.533
		C832.543,143.668,831.688,145.492,831.688,147.24z"/>
	<path class="st2" d="M842.974,147.525c0.038,2.261,1.481,3.191,3.153,3.191c1.197,0,1.919-0.209,2.545-0.475l0.285,1.196
		c-0.588,0.267-1.596,0.57-3.059,0.57c-2.83,0-4.521-1.861-4.521-4.635s1.635-4.959,4.312-4.959c3.002,0,3.8,2.641,3.8,4.332
		c0,0.342-0.038,0.607-0.057,0.778H842.974z M847.875,146.328c0.019-1.064-0.438-2.717-2.318-2.717c-1.69,0-2.432,1.558-2.564,2.717
		H847.875z"/>
	<path class="st2" d="M852.283,150.108c0.494,0.324,1.369,0.666,2.204,0.666c1.216,0,1.786-0.608,1.786-1.368
		c0-0.798-0.475-1.235-1.71-1.69c-1.653-0.59-2.432-1.501-2.432-2.604c0-1.481,1.196-2.697,3.173-2.697
		c0.931,0,1.748,0.266,2.26,0.57l-0.418,1.216c-0.36-0.228-1.025-0.532-1.88-0.532c-0.988,0-1.539,0.57-1.539,1.254
		c0,0.76,0.551,1.102,1.748,1.558c1.596,0.608,2.413,1.405,2.413,2.774c0,1.614-1.254,2.754-3.439,2.754
		c-1.006,0-1.938-0.247-2.584-0.627L852.283,150.108z"/>
	<path class="st2" d="M865.963,145.112c0-0.949-0.019-1.729-0.075-2.488h1.481l0.096,1.52h0.037c0.456-0.873,1.52-1.729,3.04-1.729
		c1.272,0,3.249,0.76,3.249,3.914v5.49h-1.672v-5.301c0-1.482-0.552-2.717-2.129-2.717c-1.102,0-1.956,0.779-2.241,1.71
		c-0.075,0.209-0.114,0.494-0.114,0.778v5.529h-1.672V145.112z"/>
	<path class="st2" d="M885.779,147.145c0,3.4-2.355,4.883-4.578,4.883c-2.488,0-4.408-1.824-4.408-4.73
		c0-3.078,2.015-4.883,4.561-4.883C883.994,142.414,885.779,144.333,885.779,147.145z M878.484,147.24
		c0,2.014,1.158,3.533,2.793,3.533c1.596,0,2.793-1.501,2.793-3.572c0-1.558-0.779-3.533-2.756-3.533
		C879.34,143.668,878.484,145.492,878.484,147.24z"/>
	<path class="st2" d="M890.854,139.983v2.641h2.393v1.273h-2.393v4.958c0,1.14,0.322,1.786,1.254,1.786
		c0.437,0,0.76-0.058,0.969-0.115l0.076,1.254c-0.324,0.134-0.836,0.229-1.482,0.229c-0.779,0-1.406-0.247-1.805-0.703
		c-0.475-0.494-0.646-1.311-0.646-2.394v-5.015h-1.424v-1.273h1.424v-2.203L890.854,139.983z"/>
	<path class="st2" d="M908.997,138.33v11.113c0,0.816,0.019,1.748,0.076,2.375h-1.501l-0.076-1.596h-0.037
		c-0.514,1.025-1.635,1.805-3.135,1.805c-2.223,0-3.934-1.881-3.934-4.674c-0.018-3.059,1.881-4.939,4.123-4.939
		c1.406,0,2.355,0.665,2.773,1.406h0.038v-5.49H908.997z M907.325,146.365c0-0.209-0.019-0.494-0.075-0.703
		c-0.248-1.062-1.16-1.938-2.413-1.938c-1.729,0-2.755,1.52-2.755,3.553c0,1.861,0.912,3.4,2.717,3.4
		c1.121,0,2.146-0.74,2.451-1.994c0.057-0.229,0.075-0.456,0.075-0.723V146.365z"/>
	<path class="st2" d="M913.653,147.525c0.038,2.261,1.481,3.191,3.153,3.191c1.197,0,1.919-0.209,2.545-0.475l0.285,1.196
		c-0.588,0.267-1.596,0.57-3.059,0.57c-2.83,0-4.521-1.861-4.521-4.635s1.635-4.959,4.312-4.959c3.002,0,3.8,2.641,3.8,4.332
		c0,0.342-0.038,0.607-0.057,0.778H913.653z M918.555,146.328c0.019-1.064-0.438-2.717-2.318-2.717c-1.69,0-2.432,1.558-2.564,2.717
		H918.555z"/>
	<path class="st2" d="M923.362,151.819v-7.922h-1.292v-1.273h1.292v-0.494c0-2.432,1.425-4.008,4.009-4.008
		c0.854,0,1.861,0.266,2.336,0.607l-0.475,1.273c-0.398-0.285-1.121-0.532-1.938-0.532c-1.767,0-2.279,1.235-2.279,2.698v0.455
		h5.338v9.195h-1.652v-7.922h-3.686v7.922H923.362z"/>
	<path class="st2" d="M934.078,145.112c0-0.949-0.02-1.729-0.076-2.488h1.482l0.095,1.52h0.038c0.455-0.873,1.52-1.729,3.039-1.729
		c1.273,0,3.249,0.76,3.249,3.914v5.49h-1.672v-5.301c0-1.482-0.551-2.717-2.128-2.717c-1.102,0-1.957,0.779-2.242,1.71
		c-0.075,0.209-0.113,0.494-0.113,0.778v5.529h-1.672V145.112z"/>
	<path class="st2" d="M946.504,147.525c0.038,2.261,1.482,3.191,3.154,3.191c1.196,0,1.918-0.209,2.545-0.475l0.285,1.196
		c-0.589,0.267-1.596,0.57-3.059,0.57c-2.83,0-4.521-1.861-4.521-4.635s1.634-4.959,4.312-4.959c3.002,0,3.799,2.641,3.799,4.332
		c0,0.342-0.037,0.607-0.057,0.778H946.504z M951.405,146.328c0.019-1.064-0.437-2.717-2.317-2.717
		c-1.691,0-2.432,1.558-2.564,2.717H951.405z"/>
	<path class="st2" d="M961.628,142.623l2.014,5.434c0.209,0.607,0.437,1.33,0.589,1.881h0.038c0.171-0.551,0.36-1.254,0.589-1.919
		l1.824-5.396h1.767l-2.508,6.555c-1.196,3.152-2.014,4.768-3.153,5.756c-0.817,0.722-1.634,1.007-2.052,1.082l-0.418-1.405
		c0.418-0.133,0.969-0.399,1.462-0.817c0.457-0.36,1.026-1.006,1.406-1.861c0.076-0.171,0.133-0.304,0.133-0.398
		c0-0.096-0.037-0.229-0.113-0.438l-3.4-8.473H961.628z"/>
	<path class="st2" d="M979.05,147.145c0,3.4-2.355,4.883-4.578,4.883c-2.489,0-4.407-1.824-4.407-4.73
		c0-3.078,2.014-4.883,4.559-4.883C977.264,142.414,979.05,144.333,979.05,147.145z M971.755,147.24
		c0,2.014,1.159,3.533,2.792,3.533c1.596,0,2.793-1.501,2.793-3.572c0-1.558-0.779-3.533-2.754-3.533
		C972.609,143.668,971.755,145.492,971.755,147.24z"/>
	<path class="st2" d="M989.804,149.311c0,0.949,0.019,1.785,0.076,2.508h-1.481l-0.096-1.502h-0.037
		c-0.438,0.742-1.406,1.711-3.04,1.711c-1.444,0-3.173-0.799-3.173-4.027v-5.377h1.672v5.092c0,1.748,0.532,2.926,2.052,2.926
		c1.121,0,1.899-0.779,2.204-1.521c0.095-0.247,0.151-0.551,0.151-0.854v-5.643h1.672V149.311z"/>
	<path class="st2" d="M993.529,145.492c0-1.083-0.02-2.014-0.076-2.869h1.463l0.057,1.805h0.076
		c0.418-1.234,1.425-2.014,2.545-2.014c0.19,0,0.323,0.02,0.476,0.057v1.577c-0.171-0.038-0.343-0.057-0.569-0.057
		c-1.179,0-2.015,0.893-2.242,2.146c-0.038,0.228-0.076,0.494-0.076,0.778v4.902h-1.652V145.492z"/>
	<path class="st2" d="M1005.84,151.819v-7.922h-1.291v-1.273h1.291v-0.437c0-1.292,0.285-2.47,1.064-3.211
		c0.627-0.608,1.463-0.854,2.242-0.854c0.588,0,1.102,0.133,1.424,0.266l-0.228,1.292c-0.247-0.114-0.589-0.209-1.063-0.209
		c-1.426,0-1.786,1.254-1.786,2.659v0.494h2.223v1.273h-2.223v7.922H1005.84z"/>
	<path class="st2" d="M1019.861,149.311c0,0.949,0.02,1.785,0.076,2.508h-1.482l-0.094-1.502h-0.039
		c-0.437,0.742-1.405,1.711-3.039,1.711c-1.443,0-3.173-0.799-3.173-4.027v-5.377h1.672v5.092c0,1.748,0.532,2.926,2.052,2.926
		c1.121,0,1.9-0.779,2.203-1.521c0.096-0.247,0.152-0.551,0.152-0.854v-5.643h1.672V149.311z"/>
	<path class="st2" d="M1025.6,139.983v2.641h2.394v1.273h-2.394v4.958c0,1.14,0.323,1.786,1.254,1.786
		c0.438,0,0.76-0.058,0.969-0.115l0.076,1.254c-0.323,0.134-0.836,0.229-1.482,0.229c-0.778,0-1.405-0.247-1.805-0.703
		c-0.475-0.494-0.646-1.311-0.646-2.394v-5.015h-1.425v-1.273h1.425v-2.203L1025.6,139.983z"/>
	<path class="st2" d="M1038.52,149.311c0,0.949,0.019,1.785,0.076,2.508h-1.482l-0.095-1.502h-0.038
		c-0.438,0.742-1.406,1.711-3.039,1.711c-1.444,0-3.174-0.799-3.174-4.027v-5.377h1.672v5.092c0,1.748,0.533,2.926,2.053,2.926
		c1.121,0,1.899-0.779,2.203-1.521c0.096-0.247,0.152-0.551,0.152-0.854v-5.643h1.672V149.311z"/>
	<path class="st2" d="M1042.244,145.492c0-1.083-0.02-2.014-0.076-2.869h1.463l0.057,1.805h0.076
		c0.418-1.234,1.425-2.014,2.545-2.014c0.19,0,0.323,0.02,0.476,0.057v1.577c-0.171-0.038-0.343-0.057-0.569-0.057
		c-1.179,0-2.015,0.893-2.242,2.146c-0.038,0.228-0.076,0.494-0.076,0.778v4.902h-1.652V145.492z"/>
	<path class="st2" d="M1050.148,147.525c0.037,2.261,1.48,3.191,3.152,3.191c1.197,0,1.92-0.209,2.546-0.475l0.285,1.196
		c-0.589,0.267-1.596,0.57-3.059,0.57c-2.831,0-4.521-1.861-4.521-4.635s1.634-4.959,4.312-4.959c3.001,0,3.8,2.641,3.8,4.332
		c0,0.342-0.038,0.607-0.057,0.778H1050.148z M1055.049,146.328c0.02-1.064-0.437-2.717-2.317-2.717
		c-1.69,0-2.432,1.558-2.565,2.717H1055.049z"/>
	<path class="st2" d="M1059.06,150.83c0-0.703,0.476-1.197,1.14-1.197c0.665,0,1.121,0.494,1.121,1.197
		c0,0.684-0.438,1.197-1.14,1.197C1059.516,152.028,1059.06,151.514,1059.06,150.83z"/>
	<path class="st2" d="M742.947,177.401c-0.607,0.304-1.823,0.607-3.381,0.607c-3.609,0-6.326-2.279-6.326-6.479
		c0-4.008,2.717-6.725,6.688-6.725c1.596,0,2.602,0.342,3.039,0.57l-0.398,1.349c-0.627-0.304-1.521-0.532-2.584-0.532
		c-3.002,0-4.996,1.919-4.996,5.281c0,3.135,1.805,5.148,4.92,5.148c1.007,0,2.033-0.209,2.697-0.531L742.947,177.401z"/>
	<path class="st2" d="M754.025,173.145c0,3.4-2.355,4.883-4.578,4.883c-2.489,0-4.408-1.824-4.408-4.73
		c0-3.078,2.014-4.883,4.56-4.883C752.239,168.414,754.025,170.333,754.025,173.145z M746.73,173.24
		c0,2.014,1.158,3.533,2.792,3.533c1.596,0,2.793-1.501,2.793-3.572c0-1.558-0.779-3.533-2.755-3.533S746.73,171.492,746.73,173.24z
		"/>
	<path class="st2" d="M757.084,171.112c0-0.949-0.019-1.729-0.075-2.488h1.462l0.076,1.482h0.058
		c0.513-0.875,1.368-1.691,2.888-1.691c1.254,0,2.203,0.76,2.603,1.843h0.038c0.285-0.513,0.646-0.911,1.025-1.196
		c0.551-0.418,1.159-0.646,2.033-0.646c1.215,0,3.02,0.798,3.02,3.99v5.414h-1.633v-5.205c0-1.768-0.646-2.831-1.995-2.831
		c-0.95,0-1.69,0.702-1.976,1.52c-0.076,0.228-0.133,0.532-0.133,0.836v5.681h-1.634v-5.51c0-1.463-0.646-2.526-1.919-2.526
		c-1.045,0-1.805,0.836-2.07,1.671c-0.096,0.248-0.133,0.533-0.133,0.817v5.548h-1.635V171.112z"/>
	<path class="st2" d="M774.812,173.525c0.037,2.261,1.481,3.191,3.153,3.191c1.196,0,1.919-0.209,2.546-0.475l0.285,1.196
		c-0.59,0.267-1.596,0.57-3.059,0.57c-2.831,0-4.521-1.861-4.521-4.635s1.633-4.959,4.312-4.959c3.001,0,3.799,2.641,3.799,4.332
		c0,0.342-0.037,0.607-0.057,0.778H774.812z M779.713,172.328c0.02-1.064-0.436-2.717-2.316-2.717c-1.691,0-2.432,1.558-2.565,2.717
		H779.713z"/>
	<path class="st2" d="M791.342,165.983v2.641h2.394v1.273h-2.394v4.958c0,1.14,0.323,1.786,1.254,1.786
		c0.438,0,0.76-0.058,0.969-0.115l0.076,1.254c-0.323,0.134-0.836,0.229-1.482,0.229c-0.778,0-1.405-0.247-1.805-0.703
		c-0.475-0.494-0.646-1.311-0.646-2.394v-5.015h-1.425v-1.273h1.425v-2.203L791.342,165.983z"/>
	<path class="st2" d="M804.773,173.145c0,3.4-2.355,4.883-4.578,4.883c-2.488,0-4.407-1.824-4.407-4.73
		c0-3.078,2.014-4.883,4.56-4.883C802.988,168.414,804.773,170.333,804.773,173.145z M797.479,173.24
		c0,2.014,1.159,3.533,2.793,3.533c1.596,0,2.793-1.501,2.793-3.572c0-1.558-0.779-3.533-2.755-3.533
		S797.479,171.492,797.479,173.24z"/>
	<path class="st2" d="M821.133,173.145c0,3.4-2.355,4.883-4.578,4.883c-2.488,0-4.408-1.824-4.408-4.73
		c0-3.078,2.015-4.883,4.561-4.883C819.348,168.414,821.133,170.333,821.133,173.145z M813.838,173.24
		c0,2.014,1.158,3.533,2.793,3.533c1.596,0,2.793-1.501,2.793-3.572c0-1.558-0.779-3.533-2.756-3.533
		C814.693,169.668,813.838,171.492,813.838,173.24z"/>
	<path class="st2" d="M831.887,175.311c0,0.949,0.02,1.785,0.076,2.508h-1.482l-0.094-1.502h-0.039
		c-0.437,0.742-1.405,1.711-3.039,1.711c-1.443,0-3.173-0.799-3.173-4.027v-5.377h1.672v5.092c0,1.748,0.532,2.926,2.052,2.926
		c1.121,0,1.9-0.779,2.203-1.521c0.096-0.247,0.152-0.551,0.152-0.854v-5.643h1.672V175.311z"/>
	<path class="st2" d="M835.611,171.492c0-1.083-0.019-2.014-0.075-2.869h1.462l0.058,1.805h0.076
		c0.418-1.234,1.425-2.014,2.546-2.014c0.189,0,0.322,0.02,0.475,0.057v1.577c-0.171-0.038-0.342-0.057-0.57-0.057
		c-1.178,0-2.014,0.893-2.241,2.146c-0.038,0.228-0.076,0.494-0.076,0.778v4.902h-1.653V171.492z"/>
	<path class="st2" d="M847.752,171.112c0-0.949-0.019-1.729-0.075-2.488h1.481l0.096,1.52h0.037c0.456-0.873,1.52-1.729,3.04-1.729
		c1.272,0,3.249,0.76,3.249,3.914v5.49h-1.672v-5.301c0-1.482-0.552-2.717-2.129-2.717c-1.102,0-1.956,0.779-2.241,1.71
		c-0.075,0.209-0.114,0.494-0.114,0.778v5.529h-1.672V171.112z"/>
	<path class="st2" d="M861.109,166.039c0.02,0.57-0.398,1.026-1.064,1.026c-0.588,0-1.006-0.456-1.006-1.026
		c0-0.588,0.437-1.045,1.045-1.045C860.711,164.994,861.109,165.451,861.109,166.039z M859.248,177.819v-9.195h1.672v9.195H859.248z
		"/>
	<path class="st2" d="M872.564,168.623c-0.037,0.665-0.076,1.406-0.076,2.527v5.338c0,2.108-0.417,3.4-1.311,4.198
		c-0.893,0.836-2.184,1.102-3.344,1.102c-1.102,0-2.316-0.266-3.058-0.76l0.417-1.272c0.608,0.38,1.559,0.722,2.698,0.722
		c1.71,0,2.964-0.894,2.964-3.21v-1.026h-0.038c-0.513,0.854-1.501,1.538-2.926,1.538c-2.28,0-3.913-1.938-3.913-4.482
		c0-3.115,2.032-4.883,4.141-4.883c1.596,0,2.471,0.836,2.869,1.596h0.038l0.075-1.387H872.564z M870.836,172.252
		c0-0.285-0.019-0.532-0.095-0.76c-0.304-0.969-1.12-1.768-2.337-1.768c-1.596,0-2.735,1.35-2.735,3.477
		c0,1.805,0.912,3.306,2.717,3.306c1.026,0,1.956-0.646,2.317-1.71c0.096-0.285,0.133-0.607,0.133-0.893V172.252z"/>
	<path class="st2" d="M876.214,164.33h1.672v5.736h0.038c0.266-0.475,0.684-0.893,1.197-1.178c0.493-0.285,1.082-0.475,1.709-0.475
		c1.234,0,3.211,0.76,3.211,3.933v5.472h-1.672v-5.281c0-1.482-0.551-2.736-2.128-2.736c-1.083,0-1.938,0.76-2.241,1.672
		c-0.096,0.229-0.114,0.475-0.114,0.798v5.548h-1.672V164.33z"/>
	<path class="st2" d="M889.646,165.983v2.641h2.395v1.273h-2.395v4.958c0,1.14,0.324,1.786,1.254,1.786
		c0.438,0,0.76-0.058,0.969-0.115l0.076,1.254c-0.322,0.134-0.836,0.229-1.481,0.229c-0.778,0-1.405-0.247-1.805-0.703
		c-0.476-0.494-0.646-1.311-0.646-2.394v-5.015h-1.426v-1.273h1.426v-2.203L889.646,165.983z"/>
	<path class="st2" d="M906.404,177.477c-0.438,0.228-1.406,0.531-2.641,0.531c-2.773,0-4.578-1.881-4.578-4.692
		c0-2.831,1.938-4.882,4.939-4.882c0.987,0,1.861,0.246,2.317,0.475l-0.38,1.292c-0.399-0.228-1.025-0.437-1.938-0.437
		c-2.109,0-3.249,1.557-3.249,3.477c0,2.127,1.368,3.438,3.191,3.438c0.95,0,1.577-0.246,2.052-0.455L906.404,177.477z"/>
	<path class="st2" d="M909.312,164.33h1.672v13.488h-1.672V164.33z"/>
	<path class="st2" d="M919.837,177.819l-0.133-1.159h-0.058c-0.513,0.722-1.5,1.368-2.811,1.368c-1.862,0-2.812-1.312-2.812-2.641
		c0-2.223,1.977-3.439,5.528-3.42v-0.189c0-0.76-0.209-2.129-2.089-2.129c-0.855,0-1.748,0.267-2.395,0.685l-0.38-1.103
		c0.761-0.493,1.862-0.816,3.021-0.816c2.812,0,3.496,1.919,3.496,3.762v3.438c0,0.798,0.037,1.577,0.152,2.204H919.837z
		 M919.59,173.125c-1.824-0.037-3.895,0.285-3.895,2.071c0,1.083,0.723,1.596,1.577,1.596c1.196,0,1.956-0.76,2.223-1.538
		c0.057-0.172,0.095-0.361,0.095-0.533V173.125z"/>
	<path class="st2" d="M924.625,176.108c0.494,0.324,1.369,0.666,2.204,0.666c1.216,0,1.786-0.608,1.786-1.368
		c0-0.798-0.475-1.235-1.71-1.69c-1.653-0.59-2.432-1.501-2.432-2.604c0-1.481,1.196-2.697,3.173-2.697
		c0.931,0,1.748,0.266,2.26,0.57l-0.418,1.216c-0.36-0.228-1.025-0.532-1.88-0.532c-0.988,0-1.539,0.57-1.539,1.254
		c0,0.76,0.551,1.102,1.748,1.558c1.596,0.608,2.413,1.405,2.413,2.774c0,1.614-1.254,2.754-3.439,2.754
		c-1.006,0-1.938-0.247-2.584-0.627L924.625,176.108z"/>
	<path class="st2" d="M933.1,176.108c0.494,0.324,1.367,0.666,2.203,0.666c1.216,0,1.786-0.608,1.786-1.368
		c0-0.798-0.476-1.235-1.71-1.69c-1.652-0.59-2.432-1.501-2.432-2.604c0-1.481,1.197-2.697,3.172-2.697
		c0.932,0,1.748,0.266,2.262,0.57l-0.418,1.216c-0.361-0.228-1.026-0.532-1.881-0.532c-0.988,0-1.539,0.57-1.539,1.254
		c0,0.76,0.551,1.102,1.748,1.558c1.596,0.608,2.412,1.405,2.412,2.774c0,1.614-1.254,2.754-3.438,2.754
		c-1.008,0-1.938-0.247-2.584-0.627L933.1,176.108z"/>
	<path class="st2" d="M942.732,173.525c0.037,2.261,1.481,3.191,3.153,3.191c1.196,0,1.919-0.209,2.546-0.475l0.285,1.196
		c-0.59,0.267-1.596,0.57-3.059,0.57c-2.831,0-4.521-1.861-4.521-4.635s1.633-4.959,4.312-4.959c3.001,0,3.799,2.641,3.799,4.332
		c0,0.342-0.037,0.607-0.057,0.778H942.732z M947.633,172.328c0.02-1.064-0.436-2.717-2.316-2.717c-1.691,0-2.432,1.558-2.565,2.717
		H947.633z"/>
	<path class="st2" d="M952.042,176.108c0.494,0.324,1.368,0.666,2.204,0.666c1.215,0,1.785-0.608,1.785-1.368
		c0-0.798-0.475-1.235-1.709-1.69c-1.653-0.59-2.432-1.501-2.432-2.604c0-1.481,1.196-2.697,3.172-2.697
		c0.932,0,1.748,0.266,2.261,0.57l-0.418,1.216c-0.36-0.228-1.026-0.532-1.88-0.532c-0.988,0-1.539,0.57-1.539,1.254
		c0,0.76,0.551,1.102,1.748,1.558c1.596,0.608,2.412,1.405,2.412,2.774c0,1.614-1.254,2.754-3.438,2.754
		c-1.007,0-1.938-0.247-2.584-0.627L952.042,176.108z"/>
	<path class="st2" d="M970.813,177.819l-0.133-1.159h-0.058c-0.513,0.722-1.5,1.368-2.811,1.368c-1.862,0-2.812-1.312-2.812-2.641
		c0-2.223,1.977-3.439,5.528-3.42v-0.189c0-0.76-0.209-2.129-2.089-2.129c-0.855,0-1.748,0.267-2.395,0.685l-0.38-1.103
		c0.761-0.493,1.862-0.816,3.021-0.816c2.812,0,3.496,1.919,3.496,3.762v3.438c0,0.798,0.037,1.577,0.152,2.204H970.813z
		 M970.566,173.125c-1.824-0.037-3.895,0.285-3.895,2.071c0,1.083,0.723,1.596,1.577,1.596c1.196,0,1.956-0.76,2.223-1.538
		c0.057-0.172,0.095-0.361,0.095-0.533V173.125z"/>
	<path class="st2" d="M975.83,171.112c0-0.949-0.02-1.729-0.076-2.488h1.481l0.095,1.52h0.039c0.455-0.873,1.52-1.729,3.039-1.729
		c1.272,0,3.248,0.76,3.248,3.914v5.49h-1.672v-5.301c0-1.482-0.551-2.717-2.127-2.717c-1.102,0-1.957,0.779-2.242,1.71
		c-0.076,0.209-0.113,0.494-0.113,0.778v5.529h-1.672V171.112z"/>
	<path class="st2" d="M995.266,164.33v11.113c0,0.816,0.02,1.748,0.076,2.375h-1.501l-0.076-1.596h-0.038
		c-0.513,1.025-1.633,1.805-3.135,1.805c-2.223,0-3.932-1.881-3.932-4.674c-0.02-3.059,1.881-4.939,4.122-4.939
		c1.405,0,2.355,0.665,2.773,1.406h0.038v-5.49H995.266z M993.594,172.365c0-0.209-0.02-0.494-0.076-0.703
		c-0.246-1.062-1.158-1.938-2.412-1.938c-1.729,0-2.755,1.52-2.755,3.553c0,1.861,0.912,3.4,2.717,3.4c1.12,0,2.146-0.74,2.45-1.994
		c0.057-0.229,0.076-0.456,0.076-0.723V172.365z"/>
	<path class="st2" d="M1011.909,164.33v11.113c0,0.816,0.019,1.748,0.076,2.375h-1.501l-0.076-1.596h-0.037
		c-0.514,1.025-1.635,1.805-3.135,1.805c-2.223,0-3.934-1.881-3.934-4.674c-0.018-3.059,1.881-4.939,4.123-4.939
		c1.406,0,2.355,0.665,2.773,1.406h0.038v-5.49H1011.909z M1010.237,172.365c0-0.209-0.019-0.494-0.075-0.703
		c-0.248-1.062-1.16-1.938-2.413-1.938c-1.729,0-2.755,1.52-2.755,3.553c0,1.861,0.912,3.4,2.717,3.4
		c1.121,0,2.146-0.74,2.451-1.994c0.057-0.229,0.075-0.456,0.075-0.723V172.365z"/>
	<path class="st2" d="M1023.955,173.145c0,3.4-2.355,4.883-4.578,4.883c-2.488,0-4.408-1.824-4.408-4.73
		c0-3.078,2.015-4.883,4.561-4.883C1022.17,168.414,1023.955,170.333,1023.955,173.145z M1016.66,173.24
		c0,2.014,1.158,3.533,2.793,3.533c1.596,0,2.793-1.501,2.793-3.572c0-1.558-0.779-3.533-2.756-3.533
		C1017.516,169.668,1016.66,171.492,1016.66,173.24z"/>
	<path class="st2" d="M1031.993,171.112c0-0.949-0.019-1.729-0.075-2.488h1.48l0.096,1.52h0.038c0.456-0.873,1.52-1.729,3.04-1.729
		c1.271,0,3.248,0.76,3.248,3.914v5.49h-1.672v-5.301c0-1.482-0.551-2.717-2.128-2.717c-1.102,0-1.956,0.779-2.241,1.71
		c-0.076,0.209-0.114,0.494-0.114,0.778v5.529h-1.672V171.112z"/>
	<path class="st2" d="M1051.809,173.145c0,3.4-2.355,4.883-4.578,4.883c-2.488,0-4.408-1.824-4.408-4.73
		c0-3.078,2.015-4.883,4.561-4.883C1050.023,168.414,1051.809,170.333,1051.809,173.145z M1044.514,173.24
		c0,2.014,1.158,3.533,2.793,3.533c1.596,0,2.793-1.501,2.793-3.572c0-1.558-0.779-3.533-2.756-3.533
		C1045.369,169.668,1044.514,171.492,1044.514,173.24z"/>
	<path class="st2" d="M1056.883,165.983v2.641h2.394v1.273h-2.394v4.958c0,1.14,0.323,1.786,1.254,1.786
		c0.438,0,0.76-0.058,0.969-0.115l0.076,1.254c-0.323,0.134-0.836,0.229-1.482,0.229c-0.778,0-1.405-0.247-1.805-0.703
		c-0.475-0.494-0.646-1.311-0.646-2.394v-5.015h-1.425v-1.273h1.425v-2.203L1056.883,165.983z"/>
	<path class="st2" d="M855.332,194.623c-0.038,0.665-0.076,1.406-0.076,2.527v5.338c0,2.108-0.418,3.4-1.311,4.198
		c-0.893,0.836-2.185,1.102-3.344,1.102c-1.102,0-2.317-0.266-3.059-0.76l0.418-1.272c0.607,0.38,1.559,0.722,2.697,0.722
		c1.711,0,2.964-0.894,2.964-3.21v-1.026h-0.038c-0.513,0.854-1.5,1.538-2.926,1.538c-2.279,0-3.913-1.938-3.913-4.482
		c0-3.115,2.032-4.883,4.142-4.883c1.596,0,2.47,0.836,2.869,1.596h0.037l0.076-1.387H855.332z M853.604,198.252
		c0-0.285-0.02-0.532-0.096-0.76c-0.303-0.969-1.12-1.768-2.336-1.768c-1.596,0-2.736,1.35-2.736,3.477
		c0,1.805,0.912,3.306,2.717,3.306c1.026,0,1.957-0.646,2.318-1.71c0.095-0.285,0.133-0.607,0.133-0.893V198.252z"/>
	<path class="st2" d="M859.912,199.525c0.037,2.261,1.481,3.191,3.153,3.191c1.196,0,1.919-0.209,2.546-0.475l0.285,1.196
		c-0.59,0.267-1.596,0.57-3.059,0.57c-2.831,0-4.521-1.861-4.521-4.635s1.633-4.959,4.312-4.959c3.001,0,3.799,2.641,3.799,4.332
		c0,0.342-0.037,0.607-0.057,0.778H859.912z M864.812,198.328c0.02-1.064-0.436-2.717-2.316-2.717c-1.691,0-2.432,1.558-2.565,2.717
		H864.812z"/>
	<path class="st2" d="M871.463,191.983v2.641h2.395v1.273h-2.395v4.958c0,1.14,0.324,1.786,1.254,1.786
		c0.438,0,0.76-0.058,0.969-0.115l0.076,1.254c-0.322,0.134-0.836,0.229-1.481,0.229c-0.778,0-1.405-0.247-1.805-0.703
		c-0.476-0.494-0.646-1.311-0.646-2.394v-5.015h-1.426v-1.273h1.426v-2.203L871.463,191.983z"/>
	<path class="st2" d="M881.591,203.819c0.038-0.627,0.075-1.559,0.075-2.375V190.33h1.653v5.775h0.038
		c0.589-1.026,1.652-1.691,3.135-1.691c2.279,0,3.895,1.9,3.875,4.692c0,3.286-2.07,4.921-4.122,4.921
		c-1.33,0-2.394-0.514-3.077-1.729h-0.058l-0.076,1.521H881.591z M883.319,200.133c0,0.209,0.038,0.418,0.076,0.607
		c0.323,1.158,1.292,1.957,2.507,1.957c1.748,0,2.793-1.425,2.793-3.533c0-1.844-0.949-3.42-2.735-3.42
		c-1.14,0-2.204,0.779-2.546,2.052c-0.037,0.19-0.095,0.418-0.095,0.684V200.133z"/>
	<path class="st2" d="M894.358,199.525c0.038,2.261,1.481,3.191,3.153,3.191c1.197,0,1.919-0.209,2.545-0.475l0.285,1.196
		c-0.588,0.267-1.596,0.57-3.059,0.57c-2.83,0-4.521-1.861-4.521-4.635s1.635-4.959,4.312-4.959c3.002,0,3.8,2.641,3.8,4.332
		c0,0.342-0.038,0.607-0.057,0.778H894.358z M899.26,198.328c0.019-1.064-0.438-2.717-2.318-2.717c-1.69,0-2.432,1.558-2.564,2.717
		H899.26z"/>
	<path class="st2" d="M903.896,190.33h1.672v5.736h0.038c0.266-0.475,0.684-0.893,1.196-1.178c0.494-0.285,1.083-0.475,1.71-0.475
		c1.235,0,3.211,0.76,3.211,3.933v5.472h-1.672v-5.281c0-1.482-0.551-2.736-2.128-2.736c-1.082,0-1.938,0.76-2.242,1.672
		c-0.094,0.229-0.113,0.475-0.113,0.798v5.548h-1.672V190.33z"/>
	<path class="st2" d="M917.253,192.039c0.019,0.57-0.399,1.026-1.063,1.026c-0.59,0-1.008-0.456-1.008-1.026
		c0-0.588,0.438-1.045,1.045-1.045C916.854,190.994,917.253,191.451,917.253,192.039z M915.391,203.819v-9.195h1.672v9.195H915.391z
		"/>
	<path class="st2" d="M920.787,197.112c0-0.949-0.02-1.729-0.076-2.488h1.482l0.095,1.52h0.038c0.455-0.873,1.52-1.729,3.039-1.729
		c1.273,0,3.249,0.76,3.249,3.914v5.49h-1.672v-5.301c0-1.482-0.551-2.717-2.128-2.717c-1.102,0-1.957,0.779-2.242,1.71
		c-0.075,0.209-0.113,0.494-0.113,0.778v5.529h-1.672V197.112z"/>
	<path class="st2" d="M940.223,190.33v11.113c0,0.816,0.02,1.748,0.076,2.375h-1.501l-0.076-1.596h-0.038
		c-0.513,1.025-1.633,1.805-3.135,1.805c-2.223,0-3.932-1.881-3.932-4.674c-0.02-3.059,1.881-4.939,4.122-4.939
		c1.405,0,2.355,0.665,2.773,1.406h0.038v-5.49H940.223z M938.551,198.365c0-0.209-0.02-0.494-0.076-0.703
		c-0.246-1.062-1.158-1.938-2.412-1.938c-1.729,0-2.755,1.52-2.755,3.553c0,1.861,0.912,3.4,2.717,3.4c1.12,0,2.146-0.74,2.45-1.994
		c0.057-0.229,0.076-0.456,0.076-0.723V198.365z"/>
	<path class="st2" d="M943.359,202.83c0-0.703,0.475-1.197,1.14-1.197s1.12,0.494,1.12,1.197c0,0.684-0.437,1.197-1.139,1.197
		C943.814,204.028,943.359,203.514,943.359,202.83z"/>
</g>
<g>
	<rect x="293.193" y="104.328" class="st1" width="343.931" height="139.903"/>
	<path class="st2" d="M421.555,106.42h-3.895v-1.406h9.479v1.406h-3.912v11.398h-1.672V106.42z"/>
	<path class="st2" d="M436.146,111.815h-4.978v4.617h5.547v1.387h-7.199v-12.805h6.915v1.387h-5.263v4.047h4.978V111.815z"/>
	<path class="st2" d="M446.443,111.815h-4.978v4.617h5.547v1.387h-7.2v-12.805h6.916v1.387h-5.263v4.047h4.978V111.815z"/>
	<path class="st2" d="M450.111,117.819v-12.805h1.805l4.104,6.479c0.949,1.5,1.689,2.85,2.298,4.16l0.038-0.02
		c-0.152-1.709-0.189-3.268-0.189-5.262v-5.357h1.557v12.805h-1.671l-4.065-6.498c-0.893-1.424-1.748-2.887-2.394-4.273
		l-0.058,0.019c0.096,1.614,0.133,3.153,0.133,5.281v5.472H450.111z"/>
	<path class="st2" d="M479.331,112.196c-0.095-1.786-0.209-3.934-0.19-5.529h-0.057c-0.438,1.502-0.969,3.098-1.615,4.863
		l-2.26,6.213h-1.254l-2.071-6.099c-0.608-1.805-1.12-3.457-1.481-4.978h-0.038c-0.038,1.596-0.133,3.743-0.247,5.662l-0.342,5.49
		h-1.576l0.893-12.805h2.108l2.185,6.193c0.531,1.576,0.969,2.982,1.292,4.312h0.057c0.323-1.292,0.778-2.697,1.349-4.312
		l2.279-6.193h2.109l0.798,12.805h-1.614L479.331,112.196z"/>
	<path class="st2" d="M495.709,111.283c0,4.407-2.679,6.744-5.946,6.744c-3.382,0-5.756-2.622-5.756-6.498
		c0-4.064,2.526-6.725,5.946-6.725C493.448,104.805,495.709,107.484,495.709,111.283z M485.773,111.492
		c0,2.735,1.482,5.186,4.084,5.186c2.622,0,4.104-2.412,4.104-5.318c0-2.547-1.33-5.205-4.084-5.205
		C487.141,106.155,485.773,108.68,485.773,111.492z"/>
	<path class="st2" d="M509.598,112.196c-0.096-1.786-0.209-3.934-0.189-5.529h-0.058c-0.437,1.502-0.969,3.098-1.614,4.863
		l-2.262,6.213h-1.254l-2.07-6.099c-0.607-1.805-1.121-3.457-1.481-4.978h-0.038c-0.038,1.596-0.133,3.743-0.247,5.662l-0.342,5.49
		h-1.577l0.893-12.805h2.109l2.185,6.193c0.532,1.576,0.969,2.982,1.292,4.312H505c0.323-1.292,0.779-2.697,1.35-4.312l2.279-6.193
		h2.108l0.798,12.805h-1.615L509.598,112.196z"/>
	<path class="st2" d="M315.023,139.014v5.357h6.192v-5.357h1.672v12.805h-1.672v-6.004h-6.192v6.004h-1.653v-12.805H315.023z"/>
	<path class="st2" d="M331.742,151.819l-0.133-1.159h-0.057c-0.514,0.722-1.502,1.368-2.812,1.368c-1.861,0-2.811-1.312-2.811-2.641
		c0-2.223,1.975-3.439,5.527-3.42v-0.189c0-0.76-0.209-2.129-2.09-2.129c-0.854,0-1.748,0.267-2.393,0.685l-0.381-1.103
		c0.76-0.493,1.861-0.816,3.021-0.816c2.811,0,3.494,1.919,3.494,3.762v3.438c0,0.798,0.039,1.577,0.152,2.204H331.742z
		 M331.495,147.125c-1.823-0.037-3.895,0.285-3.895,2.071c0,1.083,0.722,1.596,1.577,1.596c1.197,0,1.957-0.76,2.223-1.538
		c0.057-0.172,0.095-0.361,0.095-0.533V147.125z"/>
	<path class="st2" d="M337.252,142.623l1.805,5.168c0.305,0.836,0.551,1.596,0.741,2.355h0.058c0.209-0.76,0.475-1.52,0.778-2.355
		l1.786-5.168h1.748l-3.609,9.195h-1.596l-3.496-9.195H337.252z"/>
	<path class="st2" d="M348.557,140.039c0.02,0.57-0.398,1.026-1.063,1.026c-0.589,0-1.007-0.456-1.007-1.026
		c0-0.588,0.438-1.045,1.045-1.045C348.158,138.994,348.557,139.451,348.557,140.039z M346.695,151.819v-9.195h1.672v9.195H346.695z
		"/>
	<path class="st2" d="M352.091,145.112c0-0.949-0.019-1.729-0.075-2.488h1.48l0.096,1.52h0.038c0.456-0.873,1.52-1.729,3.04-1.729
		c1.271,0,3.248,0.76,3.248,3.914v5.49h-1.672v-5.301c0-1.482-0.551-2.717-2.128-2.717c-1.102,0-1.956,0.779-2.241,1.71
		c-0.076,0.209-0.114,0.494-0.114,0.778v5.529h-1.672V145.112z"/>
	<path class="st2" d="M371.508,142.623c-0.038,0.665-0.076,1.406-0.076,2.527v5.338c0,2.108-0.418,3.4-1.311,4.198
		c-0.893,0.836-2.185,1.102-3.344,1.102c-1.102,0-2.317-0.266-3.059-0.76l0.418-1.272c0.607,0.38,1.559,0.722,2.697,0.722
		c1.711,0,2.965-0.894,2.965-3.21v-1.026h-0.039c-0.513,0.854-1.5,1.538-2.926,1.538c-2.279,0-3.913-1.938-3.913-4.482
		c0-3.115,2.032-4.883,4.142-4.883c1.596,0,2.47,0.836,2.869,1.596h0.037l0.076-1.387H371.508z M369.779,146.252
		c0-0.285-0.02-0.532-0.096-0.76c-0.303-0.969-1.12-1.768-2.336-1.768c-1.596,0-2.736,1.35-2.736,3.477
		c0,1.805,0.912,3.306,2.717,3.306c1.026,0,1.957-0.646,2.318-1.71c0.095-0.285,0.133-0.607,0.133-0.893V146.252z"/>
	<path class="st2" d="M385.226,151.819l-0.133-1.159h-0.058c-0.512,0.722-1.5,1.368-2.811,1.368c-1.862,0-2.812-1.312-2.812-2.641
		c0-2.223,1.977-3.439,5.528-3.42v-0.189c0-0.76-0.209-2.129-2.089-2.129c-0.855,0-1.748,0.267-2.395,0.685l-0.38-1.103
		c0.761-0.493,1.862-0.816,3.021-0.816c2.812,0,3.496,1.919,3.496,3.762v3.438c0,0.798,0.037,1.577,0.152,2.204H385.226z
		 M384.979,147.125c-1.824-0.037-3.895,0.285-3.895,2.071c0,1.083,0.723,1.596,1.577,1.596c1.196,0,1.956-0.76,2.223-1.538
		c0.057-0.172,0.095-0.361,0.095-0.533V147.125z"/>
	<path class="st2" d="M396.873,146.841h0.037c0.229-0.323,0.551-0.722,0.817-1.045l2.697-3.173h2.015l-3.553,3.781l4.046,5.414
		H400.9l-3.173-4.408l-0.854,0.95v3.458h-1.653V138.33h1.653V146.841z"/>
	<path class="st2" d="M407.266,140.039c0.02,0.57-0.398,1.026-1.064,1.026c-0.588,0-1.006-0.456-1.006-1.026
		c0-0.588,0.437-1.045,1.045-1.045C406.867,138.994,407.266,139.451,407.266,140.039z M405.404,151.819v-9.195h1.672v9.195H405.404z
		"/>
	<path class="st2" d="M418.74,138.33v11.113c0,0.816,0.02,1.748,0.076,2.375h-1.5l-0.076-1.596h-0.038
		c-0.513,1.025-1.634,1.805-3.135,1.805c-2.223,0-3.933-1.881-3.933-4.674c-0.019-3.059,1.881-4.939,4.123-4.939
		c1.405,0,2.355,0.665,2.773,1.406h0.037v-5.49H418.74z M417.068,146.365c0-0.209-0.019-0.494-0.075-0.703
		c-0.247-1.062-1.159-1.938-2.413-1.938c-1.729,0-2.754,1.52-2.754,3.553c0,1.861,0.912,3.4,2.717,3.4c1.12,0,2.146-0.74,2.45-1.994
		c0.057-0.229,0.075-0.456,0.075-0.723V146.365z"/>
	<path class="st2" d="M432.535,151.819l-0.133-1.159h-0.058c-0.513,0.722-1.501,1.368-2.812,1.368c-1.861,0-2.812-1.312-2.812-2.641
		c0-2.223,1.976-3.439,5.528-3.42v-0.189c0-0.76-0.209-2.129-2.09-2.129c-0.855,0-1.748,0.267-2.394,0.685l-0.38-1.103
		c0.76-0.493,1.861-0.816,3.021-0.816c2.812,0,3.495,1.919,3.495,3.762v3.438c0,0.798,0.038,1.577,0.152,2.204H432.535z
		 M432.287,147.125c-1.823-0.037-3.895,0.285-3.895,2.071c0,1.083,0.723,1.596,1.578,1.596c1.196,0,1.956-0.76,2.223-1.538
		c0.057-0.172,0.094-0.361,0.094-0.533V147.125z"/>
	<path class="st2" d="M439.488,139.983v2.641h2.395v1.273h-2.395v4.958c0,1.14,0.324,1.786,1.254,1.786
		c0.438,0,0.76-0.058,0.969-0.115l0.076,1.254c-0.322,0.134-0.836,0.229-1.481,0.229c-0.778,0-1.405-0.247-1.805-0.703
		c-0.476-0.494-0.646-1.311-0.646-2.394v-5.015h-1.426v-1.273h1.426v-2.203L439.488,139.983z"/>
	<path class="st2" d="M454.783,151.819l-0.133-1.159h-0.057c-0.514,0.722-1.501,1.368-2.812,1.368c-1.862,0-2.812-1.312-2.812-2.641
		c0-2.223,1.976-3.439,5.527-3.42v-0.189c0-0.76-0.209-2.129-2.089-2.129c-0.854,0-1.748,0.267-2.394,0.685l-0.381-1.103
		c0.761-0.493,1.862-0.816,3.021-0.816c2.812,0,3.495,1.919,3.495,3.762v3.438c0,0.798,0.038,1.577,0.152,2.204H454.783z
		 M454.537,147.125c-1.824-0.037-3.895,0.285-3.895,2.071c0,1.083,0.722,1.596,1.576,1.596c1.197,0,1.957-0.76,2.223-1.538
		c0.057-0.172,0.096-0.361,0.096-0.533V147.125z"/>
	<path class="st2" d="M465.386,142.623l2.014,5.434c0.209,0.607,0.437,1.33,0.589,1.881h0.038c0.171-0.551,0.36-1.254,0.589-1.919
		l1.824-5.396h1.766l-2.507,6.555c-1.196,3.152-2.014,4.768-3.153,5.756c-0.817,0.722-1.635,1.007-2.052,1.082l-0.418-1.405
		c0.418-0.133,0.969-0.399,1.462-0.817c0.457-0.36,1.026-1.006,1.406-1.861c0.076-0.171,0.133-0.304,0.133-0.398
		c0-0.096-0.037-0.229-0.113-0.438l-3.4-8.473H465.386z"/>
	<path class="st2" d="M482.807,147.145c0,3.4-2.355,4.883-4.578,4.883c-2.488,0-4.407-1.824-4.407-4.73
		c0-3.078,2.015-4.883,4.56-4.883C481.021,142.414,482.807,144.333,482.807,147.145z M475.512,147.24
		c0,2.014,1.159,3.533,2.793,3.533c1.596,0,2.793-1.501,2.793-3.572c0-1.558-0.779-3.533-2.755-3.533
		S475.512,145.492,475.512,147.24z"/>
	<path class="st2" d="M493.562,149.311c0,0.949,0.019,1.785,0.076,2.508h-1.481l-0.096-1.502h-0.037
		c-0.438,0.742-1.406,1.711-3.04,1.711c-1.444,0-3.173-0.799-3.173-4.027v-5.377h1.672v5.092c0,1.748,0.532,2.926,2.052,2.926
		c1.121,0,1.899-0.779,2.204-1.521c0.095-0.247,0.151-0.551,0.151-0.854v-5.643h1.672V149.311z"/>
	<path class="st2" d="M497.287,145.112c0-0.949-0.02-1.729-0.076-2.488h1.481l0.095,1.52h0.039c0.455-0.873,1.52-1.729,3.039-1.729
		c1.272,0,3.248,0.76,3.248,3.914v5.49h-1.672v-5.301c0-1.482-0.551-2.717-2.127-2.717c-1.102,0-1.957,0.779-2.242,1.71
		c-0.076,0.209-0.113,0.494-0.113,0.778v5.529h-1.672V145.112z"/>
	<path class="st2" d="M516.703,142.623c-0.038,0.665-0.076,1.406-0.076,2.527v5.338c0,2.108-0.418,3.4-1.311,4.198
		c-0.893,0.836-2.185,1.102-3.344,1.102c-1.102,0-2.317-0.266-3.059-0.76l0.418-1.272c0.607,0.38,1.559,0.722,2.697,0.722
		c1.711,0,2.965-0.894,2.965-3.21v-1.026h-0.039c-0.513,0.854-1.5,1.538-2.926,1.538c-2.279,0-3.913-1.938-3.913-4.482
		c0-3.115,2.032-4.883,4.142-4.883c1.596,0,2.47,0.836,2.869,1.596h0.037l0.076-1.387H516.703z M514.975,146.252
		c0-0.285-0.02-0.532-0.096-0.76c-0.303-0.969-1.12-1.768-2.336-1.768c-1.596,0-2.736,1.35-2.736,3.477
		c0,1.805,0.912,3.306,2.717,3.306c1.026,0,1.957-0.646,2.318-1.71c0.095-0.285,0.133-0.607,0.133-0.893V146.252z"/>
	<path class="st2" d="M530.421,151.819l-0.133-1.159h-0.058c-0.512,0.722-1.5,1.368-2.811,1.368c-1.862,0-2.812-1.312-2.812-2.641
		c0-2.223,1.977-3.439,5.528-3.42v-0.189c0-0.76-0.209-2.129-2.089-2.129c-0.855,0-1.748,0.267-2.395,0.685l-0.38-1.103
		c0.761-0.493,1.862-0.816,3.021-0.816c2.812,0,3.496,1.919,3.496,3.762v3.438c0,0.798,0.037,1.577,0.152,2.204H530.421z
		 M530.174,147.125c-1.824-0.037-3.895,0.285-3.895,2.071c0,1.083,0.723,1.596,1.577,1.596c1.196,0,1.956-0.76,2.223-1.538
		c0.057-0.172,0.095-0.361,0.095-0.533V147.125z"/>
	<path class="st2" d="M543.359,142.623c-0.038,0.665-0.076,1.406-0.076,2.527v5.338c0,2.108-0.418,3.4-1.311,4.198
		c-0.893,0.836-2.185,1.102-3.344,1.102c-1.102,0-2.317-0.266-3.059-0.76l0.418-1.272c0.607,0.38,1.559,0.722,2.697,0.722
		c1.711,0,2.965-0.894,2.965-3.21v-1.026h-0.039c-0.513,0.854-1.5,1.538-2.926,1.538c-2.279,0-3.913-1.938-3.913-4.482
		c0-3.115,2.032-4.883,4.142-4.883c1.596,0,2.47,0.836,2.869,1.596h0.037l0.076-1.387H543.359z M541.631,146.252
		c0-0.285-0.02-0.532-0.096-0.76c-0.303-0.969-1.12-1.768-2.336-1.768c-1.596,0-2.736,1.35-2.736,3.477
		c0,1.805,0.912,3.306,2.717,3.306c1.026,0,1.957-0.646,2.318-1.71c0.095-0.285,0.133-0.607,0.133-0.893V146.252z"/>
	<path class="st2" d="M547.939,147.525c0.037,2.261,1.481,3.191,3.153,3.191c1.196,0,1.919-0.209,2.546-0.475l0.285,1.196
		c-0.59,0.267-1.596,0.57-3.059,0.57c-2.831,0-4.521-1.861-4.521-4.635s1.633-4.959,4.312-4.959c3.001,0,3.799,2.641,3.799,4.332
		c0,0.342-0.037,0.607-0.057,0.778H547.939z M552.84,146.328c0.02-1.064-0.436-2.717-2.316-2.717c-1.691,0-2.432,1.558-2.565,2.717
		H552.84z"/>
	<path class="st2" d="M569.01,151.477c-0.438,0.228-1.406,0.531-2.641,0.531c-2.773,0-4.579-1.881-4.579-4.692
		c0-2.831,1.938-4.882,4.939-4.882c0.987,0,1.862,0.246,2.317,0.475l-0.379,1.292c-0.4-0.228-1.026-0.437-1.938-0.437
		c-2.108,0-3.249,1.557-3.249,3.477c0,2.127,1.368,3.438,3.191,3.438c0.951,0,1.578-0.246,2.053-0.455L569.01,151.477z"/>
	<path class="st2" d="M577.008,151.819l-0.133-1.159h-0.057c-0.514,0.722-1.502,1.368-2.812,1.368c-1.861,0-2.811-1.312-2.811-2.641
		c0-2.223,1.975-3.439,5.527-3.42v-0.189c0-0.76-0.209-2.129-2.09-2.129c-0.854,0-1.748,0.267-2.393,0.685l-0.381-1.103
		c0.76-0.493,1.861-0.816,3.021-0.816c2.811,0,3.494,1.919,3.494,3.762v3.438c0,0.798,0.039,1.577,0.152,2.204H577.008z
		 M576.761,147.125c-1.823-0.037-3.895,0.285-3.895,2.071c0,1.083,0.722,1.596,1.577,1.596c1.197,0,1.957-0.76,2.223-1.538
		c0.057-0.172,0.095-0.361,0.095-0.533V147.125z"/>
	<path class="st2" d="M582.024,145.112c0-0.949-0.019-1.729-0.075-2.488h1.48l0.096,1.52h0.038c0.456-0.873,1.52-1.729,3.04-1.729
		c1.271,0,3.248,0.76,3.248,3.914v5.49h-1.672v-5.301c0-1.482-0.551-2.717-2.128-2.717c-1.102,0-1.956,0.779-2.241,1.71
		c-0.076,0.209-0.114,0.494-0.114,0.778v5.529h-1.672V145.112z"/>
	<path class="st2" d="M598.422,151.819c0.037-0.627,0.075-1.559,0.075-2.375V138.33h1.653v5.775h0.037
		c0.59-1.026,1.653-1.691,3.135-1.691c2.279,0,3.895,1.9,3.875,4.692c0,3.286-2.07,4.921-4.121,4.921
		c-1.33,0-2.395-0.514-3.078-1.729h-0.057l-0.076,1.521H598.422z M600.15,148.133c0,0.209,0.037,0.418,0.076,0.607
		c0.322,1.158,1.291,1.957,2.507,1.957c1.748,0,2.792-1.425,2.792-3.533c0-1.844-0.949-3.42-2.734-3.42
		c-1.141,0-2.204,0.779-2.546,2.052c-0.038,0.19-0.095,0.418-0.095,0.684V148.133z"/>
	<path class="st2" d="M611.189,147.525c0.037,2.261,1.48,3.191,3.152,3.191c1.197,0,1.92-0.209,2.546-0.475l0.285,1.196
		c-0.589,0.267-1.596,0.57-3.059,0.57c-2.831,0-4.521-1.861-4.521-4.635s1.634-4.959,4.312-4.959c3.001,0,3.8,2.641,3.8,4.332
		c0,0.342-0.038,0.607-0.057,0.778H611.189z M616.09,146.328c0.02-1.064-0.437-2.717-2.317-2.717c-1.69,0-2.432,1.558-2.565,2.717
		H616.09z"/>
	<path class="st2" d="M333.586,164.33h1.672v5.736h0.037c0.266-0.475,0.684-0.893,1.197-1.178c0.494-0.285,1.082-0.475,1.709-0.475
		c1.235,0,3.211,0.76,3.211,3.933v5.472h-1.672v-5.281c0-1.482-0.551-2.736-2.127-2.736c-1.083,0-1.938,0.76-2.242,1.672
		c-0.095,0.229-0.113,0.475-0.113,0.798v5.548h-1.672V164.33z"/>
	<path class="st2" d="M350.172,177.819l-0.133-1.159h-0.057c-0.514,0.722-1.502,1.368-2.812,1.368c-1.861,0-2.811-1.312-2.811-2.641
		c0-2.223,1.975-3.439,5.527-3.42v-0.189c0-0.76-0.209-2.129-2.09-2.129c-0.854,0-1.748,0.267-2.393,0.685l-0.381-1.103
		c0.76-0.493,1.861-0.816,3.021-0.816c2.811,0,3.494,1.919,3.494,3.762v3.438c0,0.798,0.039,1.577,0.152,2.204H350.172z
		 M349.925,173.125c-1.823-0.037-3.895,0.285-3.895,2.071c0,1.083,0.722,1.596,1.577,1.596c1.197,0,1.957-0.76,2.223-1.538
		c0.057-0.172,0.095-0.361,0.095-0.533V173.125z"/>
	<path class="st2" d="M355.188,171.492c0-1.083-0.019-2.014-0.075-2.869h1.462l0.058,1.805h0.076
		c0.418-1.234,1.425-2.014,2.546-2.014c0.189,0,0.322,0.02,0.475,0.057v1.577c-0.171-0.038-0.342-0.057-0.57-0.057
		c-1.178,0-2.014,0.893-2.241,2.146c-0.038,0.228-0.076,0.494-0.076,0.778v4.902h-1.653V171.492z"/>
	<path class="st2" d="M370.102,164.33v11.113c0,0.816,0.02,1.748,0.076,2.375h-1.5l-0.076-1.596h-0.038
		c-0.513,1.025-1.634,1.805-3.135,1.805c-2.223,0-3.933-1.881-3.933-4.674c-0.019-3.059,1.881-4.939,4.123-4.939
		c1.405,0,2.355,0.665,2.773,1.406h0.037v-5.49H370.102z M368.43,172.365c0-0.209-0.019-0.494-0.075-0.703
		c-0.247-1.062-1.159-1.938-2.413-1.938c-1.729,0-2.754,1.52-2.754,3.553c0,1.861,0.912,3.4,2.717,3.4c1.12,0,2.146-0.74,2.45-1.994
		c0.057-0.229,0.075-0.456,0.075-0.723V172.365z"/>
	<path class="st2" d="M373.238,176.83c0-0.703,0.475-1.197,1.139-1.197c0.666,0,1.121,0.494,1.121,1.197
		c0,0.684-0.437,1.197-1.139,1.197C373.693,178.028,373.238,177.514,373.238,176.83z"/>
	<path class="st2" d="M383.555,165.014h1.652v11.418h5.472v1.387h-7.124V165.014z"/>
	<path class="st2" d="M394.08,173.525c0.038,2.261,1.482,3.191,3.154,3.191c1.196,0,1.918-0.209,2.545-0.475l0.285,1.196
		c-0.589,0.267-1.596,0.57-3.059,0.57c-2.83,0-4.521-1.861-4.521-4.635s1.634-4.959,4.312-4.959c3.002,0,3.799,2.641,3.799,4.332
		c0,0.342-0.037,0.607-0.057,0.778H394.08z M398.981,172.328c0.019-1.064-0.437-2.717-2.317-2.717c-1.691,0-2.432,1.558-2.564,2.717
		H398.981z"/>
	<path class="st2" d="M405.633,165.983v2.641h2.393v1.273h-2.393v4.958c0,1.14,0.322,1.786,1.254,1.786
		c0.437,0,0.76-0.058,0.969-0.115l0.076,1.254c-0.324,0.134-0.836,0.229-1.482,0.229c-0.779,0-1.406-0.247-1.805-0.703
		c-0.475-0.494-0.646-1.311-0.646-2.394v-5.015h-1.424v-1.273h1.424v-2.203L405.633,165.983z"/>
	<path class="st2" d="M423.529,175.311c0,0.949,0.02,1.785,0.076,2.508h-1.482l-0.094-1.502h-0.039
		c-0.437,0.742-1.405,1.711-3.039,1.711c-1.443,0-3.173-0.799-3.173-4.027v-5.377h1.672v5.092c0,1.748,0.532,2.926,2.052,2.926
		c1.121,0,1.9-0.779,2.203-1.521c0.096-0.247,0.152-0.551,0.152-0.854v-5.643h1.672V175.311z"/>
	<path class="st2" d="M427.026,176.108c0.494,0.324,1.368,0.666,2.204,0.666c1.215,0,1.785-0.608,1.785-1.368
		c0-0.798-0.475-1.235-1.709-1.69c-1.653-0.59-2.432-1.501-2.432-2.604c0-1.481,1.196-2.697,3.172-2.697
		c0.932,0,1.748,0.266,2.261,0.57l-0.418,1.216c-0.36-0.228-1.026-0.532-1.88-0.532c-0.988,0-1.539,0.57-1.539,1.254
		c0,0.76,0.551,1.102,1.748,1.558c1.596,0.608,2.412,1.405,2.412,2.774c0,1.614-1.254,2.754-3.438,2.754
		c-1.007,0-1.938-0.247-2.584-0.627L427.026,176.108z"/>
	<path class="st2" d="M440.706,164.33h1.672v5.736h0.038c0.266-0.475,0.684-0.893,1.197-1.178c0.493-0.285,1.082-0.475,1.709-0.475
		c1.234,0,3.211,0.76,3.211,3.933v5.472h-1.672v-5.281c0-1.482-0.551-2.736-2.128-2.736c-1.083,0-1.938,0.76-2.241,1.672
		c-0.096,0.229-0.114,0.475-0.114,0.798v5.548h-1.672V164.33z"/>
	<path class="st2" d="M453.132,173.525c0.038,2.261,1.481,3.191,3.153,3.191c1.197,0,1.919-0.209,2.545-0.475l0.285,1.196
		c-0.588,0.267-1.596,0.57-3.059,0.57c-2.83,0-4.521-1.861-4.521-4.635s1.635-4.959,4.312-4.959c3.002,0,3.8,2.641,3.8,4.332
		c0,0.342-0.038,0.607-0.057,0.778H453.132z M458.033,172.328c0.019-1.064-0.438-2.717-2.318-2.717c-1.69,0-2.432,1.558-2.564,2.717
		H458.033z"/>
	<path class="st2" d="M462.67,164.33h1.672v13.488h-1.672V164.33z"/>
	<path class="st2" d="M468.104,171.625c0-1.178-0.037-2.128-0.075-3.002h1.501l0.076,1.577h0.037
		c0.684-1.121,1.768-1.786,3.268-1.786c2.223,0,3.895,1.881,3.895,4.674c0,3.305-2.014,4.939-4.18,4.939
		c-1.215,0-2.279-0.532-2.83-1.444h-0.038v4.996h-1.653V171.625z M469.757,174.075c0,0.247,0.038,0.476,0.076,0.685
		c0.304,1.158,1.311,1.956,2.507,1.956c1.768,0,2.793-1.443,2.793-3.552c0-1.844-0.969-3.42-2.735-3.42
		c-1.14,0-2.204,0.816-2.526,2.07c-0.057,0.209-0.114,0.456-0.114,0.684V174.075z"/>
	<path class="st2" d="M485.45,168.623l2.014,5.434c0.209,0.607,0.437,1.33,0.589,1.881h0.038c0.171-0.551,0.36-1.254,0.589-1.919
		l1.824-5.396h1.766l-2.507,6.555c-1.196,3.152-2.014,4.768-3.153,5.756c-0.817,0.722-1.635,1.007-2.052,1.082l-0.418-1.405
		c0.418-0.133,0.969-0.399,1.462-0.817c0.457-0.36,1.026-1.006,1.406-1.861c0.076-0.171,0.133-0.304,0.133-0.398
		c0-0.096-0.037-0.229-0.113-0.438l-3.4-8.473H485.45z"/>
	<path class="st2" d="M502.871,173.145c0,3.4-2.355,4.883-4.578,4.883c-2.488,0-4.407-1.824-4.407-4.73
		c0-3.078,2.015-4.883,4.56-4.883C501.086,168.414,502.871,170.333,502.871,173.145z M495.576,173.24
		c0,2.014,1.159,3.533,2.793,3.533c1.596,0,2.793-1.501,2.793-3.572c0-1.558-0.779-3.533-2.755-3.533
		S495.576,171.492,495.576,173.24z"/>
	<path class="st2" d="M513.626,175.311c0,0.949,0.019,1.785,0.076,2.508h-1.481l-0.096-1.502h-0.037
		c-0.438,0.742-1.406,1.711-3.04,1.711c-1.444,0-3.173-0.799-3.173-4.027v-5.377h1.672v5.092c0,1.748,0.532,2.926,2.052,2.926
		c1.121,0,1.899-0.779,2.204-1.521c0.095-0.247,0.151-0.551,0.151-0.854v-5.643h1.672V175.311z"/>
	<path class="st2" d="M530.25,168.623c-0.037,0.665-0.076,1.406-0.076,2.527v5.338c0,2.108-0.418,3.4-1.311,4.198
		c-0.893,0.836-2.184,1.102-3.344,1.102c-1.102,0-2.316-0.266-3.059-0.76l0.418-1.272c0.608,0.38,1.559,0.722,2.698,0.722
		c1.71,0,2.964-0.894,2.964-3.21v-1.026h-0.038c-0.513,0.854-1.501,1.538-2.926,1.538c-2.28,0-3.913-1.938-3.913-4.482
		c0-3.115,2.032-4.883,4.141-4.883c1.596,0,2.471,0.836,2.869,1.596h0.038l0.075-1.387H530.25z M528.521,172.252
		c0-0.285-0.019-0.532-0.095-0.76c-0.304-0.969-1.12-1.768-2.337-1.768c-1.596,0-2.735,1.35-2.735,3.477
		c0,1.805,0.912,3.306,2.717,3.306c1.026,0,1.956-0.646,2.317-1.71c0.096-0.285,0.133-0.607,0.133-0.893V172.252z"/>
	<path class="st2" d="M534.83,173.525c0.038,2.261,1.482,3.191,3.154,3.191c1.196,0,1.918-0.209,2.545-0.475l0.285,1.196
		c-0.589,0.267-1.596,0.57-3.059,0.57c-2.83,0-4.521-1.861-4.521-4.635s1.634-4.959,4.312-4.959c3.002,0,3.799,2.641,3.799,4.332
		c0,0.342-0.037,0.607-0.057,0.778H534.83z M539.731,172.328c0.019-1.064-0.437-2.717-2.317-2.717c-1.691,0-2.432,1.558-2.564,2.717
		H539.731z"/>
	<path class="st2" d="M546.382,165.983v2.641h2.394v1.273h-2.394v4.958c0,1.14,0.323,1.786,1.254,1.786
		c0.437,0,0.76-0.058,0.969-0.115l0.076,1.254c-0.323,0.134-0.836,0.229-1.481,0.229c-0.779,0-1.406-0.247-1.805-0.703
		c-0.476-0.494-0.646-1.311-0.646-2.394v-5.015h-1.425v-1.273h1.425v-2.203L546.382,165.983z"/>
	<path class="st2" d="M561.677,177.819l-0.133-1.159h-0.058c-0.512,0.722-1.5,1.368-2.811,1.368c-1.862,0-2.812-1.312-2.812-2.641
		c0-2.223,1.977-3.439,5.528-3.42v-0.189c0-0.76-0.209-2.129-2.089-2.129c-0.855,0-1.748,0.267-2.395,0.685l-0.38-1.103
		c0.761-0.493,1.862-0.816,3.021-0.816c2.812,0,3.496,1.919,3.496,3.762v3.438c0,0.798,0.037,1.577,0.152,2.204H561.677z
		 M561.43,173.125c-1.824-0.037-3.895,0.285-3.895,2.071c0,1.083,0.723,1.596,1.577,1.596c1.196,0,1.956-0.76,2.223-1.538
		c0.057-0.172,0.095-0.361,0.095-0.533V173.125z"/>
	<path class="st2" d="M571.842,177.819v-7.922h-1.291v-1.273h1.291v-0.437c0-1.292,0.285-2.47,1.064-3.211
		c0.627-0.608,1.463-0.854,2.241-0.854c0.589,0,1.103,0.133,1.425,0.266l-0.229,1.292c-0.246-0.114-0.588-0.209-1.063-0.209
		c-1.425,0-1.786,1.254-1.786,2.659v0.494h2.223v1.273h-2.223v7.922H571.842z"/>
	<path class="st2" d="M585.862,175.311c0,0.949,0.019,1.785,0.076,2.508h-1.481l-0.096-1.502h-0.037
		c-0.438,0.742-1.406,1.711-3.04,1.711c-1.444,0-3.173-0.799-3.173-4.027v-5.377h1.672v5.092c0,1.748,0.532,2.926,2.052,2.926
		c1.121,0,1.899-0.779,2.204-1.521c0.095-0.247,0.151-0.551,0.151-0.854v-5.643h1.672V175.311z"/>
	<path class="st2" d="M589.588,164.33h1.672v13.488h-1.672V164.33z"/>
	<path class="st2" d="M595.021,164.33h1.672v13.488h-1.672V164.33z"/>
	<path class="st2" d="M421.23,199.525c0.038,2.261,1.482,3.191,3.154,3.191c1.196,0,1.918-0.209,2.545-0.475l0.285,1.196
		c-0.589,0.267-1.596,0.57-3.059,0.57c-2.83,0-4.521-1.861-4.521-4.635s1.634-4.959,4.312-4.959c3.002,0,3.799,2.641,3.799,4.332
		c0,0.342-0.037,0.607-0.057,0.778H421.23z M426.132,198.328c0.019-1.064-0.437-2.717-2.317-2.717c-1.691,0-2.432,1.558-2.564,2.717
		H426.132z"/>
	<path class="st2" d="M438.71,190.33v11.113c0,0.816,0.019,1.748,0.076,2.375h-1.501l-0.076-1.596h-0.037
		c-0.514,1.025-1.635,1.805-3.135,1.805c-2.223,0-3.934-1.881-3.934-4.674c-0.018-3.059,1.881-4.939,4.123-4.939
		c1.406,0,2.355,0.665,2.773,1.406h0.038v-5.49H438.71z M437.038,198.365c0-0.209-0.019-0.494-0.075-0.703
		c-0.248-1.062-1.16-1.938-2.414-1.938c-1.729,0-2.754,1.52-2.754,3.553c0,1.861,0.912,3.4,2.717,3.4
		c1.121,0,2.146-0.74,2.451-1.994c0.057-0.229,0.075-0.456,0.075-0.723V198.365z"/>
	<path class="st2" d="M450.129,201.311c0,0.949,0.019,1.785,0.076,2.508h-1.482l-0.095-1.502h-0.038
		c-0.438,0.742-1.406,1.711-3.039,1.711c-1.444,0-3.174-0.799-3.174-4.027v-5.377h1.672v5.092c0,1.748,0.533,2.926,2.053,2.926
		c1.121,0,1.899-0.779,2.203-1.521c0.096-0.247,0.152-0.551,0.152-0.854v-5.643h1.672V201.311z"/>
	<path class="st2" d="M460.408,203.477c-0.438,0.228-1.406,0.531-2.641,0.531c-2.773,0-4.579-1.881-4.579-4.692
		c0-2.831,1.938-4.882,4.939-4.882c0.987,0,1.862,0.246,2.317,0.475l-0.379,1.292c-0.4-0.228-1.026-0.437-1.938-0.437
		c-2.108,0-3.249,1.557-3.249,3.477c0,2.127,1.368,3.438,3.191,3.438c0.951,0,1.578-0.246,2.053-0.455L460.408,203.477z"/>
	<path class="st2" d="M468.406,203.819l-0.133-1.159h-0.057c-0.514,0.722-1.502,1.368-2.812,1.368c-1.861,0-2.811-1.312-2.811-2.641
		c0-2.223,1.975-3.439,5.527-3.42v-0.189c0-0.76-0.209-2.129-2.09-2.129c-0.854,0-1.748,0.267-2.393,0.685l-0.381-1.103
		c0.76-0.493,1.861-0.816,3.021-0.816c2.811,0,3.494,1.919,3.494,3.762v3.438c0,0.798,0.039,1.577,0.152,2.204H468.406z
		 M468.159,199.125c-1.823-0.037-3.895,0.285-3.895,2.071c0,1.083,0.722,1.596,1.577,1.596c1.197,0,1.957-0.76,2.223-1.538
		c0.057-0.172,0.095-0.361,0.095-0.533V199.125z"/>
	<path class="st2" d="M475.36,191.983v2.641h2.394v1.273h-2.394v4.958c0,1.14,0.323,1.786,1.254,1.786
		c0.437,0,0.76-0.058,0.969-0.115l0.076,1.254c-0.323,0.134-0.836,0.229-1.481,0.229c-0.779,0-1.406-0.247-1.805-0.703
		c-0.476-0.494-0.646-1.311-0.646-2.394v-5.015h-1.425v-1.273h1.425v-2.203L475.36,191.983z"/>
	<path class="st2" d="M482.447,192.039c0.02,0.57-0.398,1.026-1.063,1.026c-0.589,0-1.007-0.456-1.007-1.026
		c0-0.588,0.438-1.045,1.045-1.045C482.049,190.994,482.447,191.451,482.447,192.039z M480.586,203.819v-9.195h1.672v9.195H480.586z
		"/>
	<path class="st2" d="M494.303,199.145c0,3.4-2.355,4.883-4.578,4.883c-2.489,0-4.408-1.824-4.408-4.73
		c0-3.078,2.014-4.883,4.56-4.883C492.517,194.414,494.303,196.333,494.303,199.145z M487.008,199.24
		c0,2.014,1.158,3.533,2.792,3.533c1.596,0,2.793-1.501,2.793-3.572c0-1.558-0.779-3.533-2.755-3.533
		S487.008,197.492,487.008,199.24z"/>
	<path class="st2" d="M497.363,197.112c0-0.949-0.02-1.729-0.076-2.488h1.481l0.095,1.52h0.039c0.455-0.873,1.52-1.729,3.039-1.729
		c1.272,0,3.248,0.76,3.248,3.914v5.49h-1.672v-5.301c0-1.482-0.551-2.717-2.127-2.717c-1.102,0-1.957,0.779-2.242,1.71
		c-0.076,0.209-0.113,0.494-0.113,0.778v5.529h-1.672V197.112z"/>
	<path class="st2" d="M508.459,202.83c0-0.703,0.475-1.197,1.139-1.197c0.666,0,1.121,0.494,1.121,1.197
		c0,0.684-0.437,1.197-1.139,1.197C508.914,204.028,508.459,203.514,508.459,202.83z"/>
</g>
<g id="_x5B_YOUR_HEADLINE_HERE_x5D__1_">
	<rect x="556.667" y="41.761" class="st1" width="246.667" height="29.501"/>
	<path class="st2" d="M626.966,55.519c0-0.609-0.199-1.076-0.598-1.4s-1.121-0.67-2.168-1.037c-2.117-0.688-3.689-1.42-4.717-2.197
		s-1.541-1.896-1.541-3.357c0-1.43,0.598-2.586,1.793-3.469s2.715-1.324,4.559-1.324c1.945,0,3.512,0.455,4.699,1.365
		s1.762,2.193,1.723,3.85l-0.023,0.07h-3.844c0-0.805-0.219-1.389-0.656-1.752s-1.098-0.545-1.98-0.545
		c-0.719,0-1.285,0.176-1.699,0.527s-0.621,0.785-0.621,1.301c0,0.5,0.213,0.9,0.639,1.201s1.221,0.678,2.385,1.131
		c1.977,0.586,3.473,1.301,4.488,2.145s1.523,2,1.523,3.469c0,1.5-0.586,2.674-1.758,3.521s-2.727,1.271-4.664,1.271
		c-1.93,0-3.564-0.455-4.904-1.365s-1.99-2.342-1.951-4.295l0.023-0.07h3.855c0,0.992,0.244,1.697,0.732,2.115
		s1.236,0.627,2.244,0.627c0.828,0,1.445-0.164,1.852-0.492S626.966,56.05,626.966,55.519z"/>
	<path class="st2" d="M645.523,52.741h-6.012v4.254h7.207v3.047h-11.168V42.98h11.18v3.047h-7.219v3.668h6.012V52.741z"/>
	<path class="st2" d="M655.416,53.503v6.539h-3.961V42.98h5.941c1.977,0,3.543,0.457,4.699,1.371s1.734,2.164,1.734,3.75
		c0,0.883-0.232,1.641-0.697,2.273s-1.15,1.148-2.057,1.547c1.047,0.297,1.799,0.791,2.256,1.482s0.686,1.553,0.686,2.584v1.078
		c0,0.445,0.066,0.953,0.199,1.523s0.363,0.977,0.691,1.219v0.234h-4.09c-0.312-0.242-0.516-0.668-0.609-1.277
		s-0.141-1.184-0.141-1.723v-1.031c0-0.812-0.215-1.434-0.645-1.863s-1.059-0.645-1.887-0.645H655.416z M655.416,50.456h2.004
		c0.797,0,1.406-0.182,1.828-0.545s0.633-0.885,0.633-1.564c0-0.695-0.217-1.256-0.65-1.682s-1.045-0.639-1.834-0.639h-1.98V50.456z
		"/>
	<path class="st2" d="M674.823,55.413l0.117,0.621h0.07l0.117-0.574l3.387-12.48h4.148l-5.531,17.062h-4.277l-5.508-17.062h4.137
		L674.823,55.413z"/>
	<path class="st2" d="M690.783,60.042h-3.949V42.98h3.949V60.042z"/>
	<path class="st2" d="M709.227,54.288l0.023,0.07c0.031,1.945-0.518,3.42-1.646,4.424s-2.729,1.506-4.799,1.506
		c-2.109,0-3.803-0.645-5.08-1.934s-1.916-2.977-1.916-5.062V49.73c0-2.078,0.615-3.764,1.846-5.057s2.857-1.939,4.881-1.939
		c2.164,0,3.838,0.504,5.021,1.512s1.76,2.473,1.729,4.395l-0.035,0.07h-3.855c0-1.047-0.223-1.797-0.668-2.25
		s-1.176-0.68-2.191-0.68c-0.891,0-1.574,0.357-2.051,1.072s-0.715,1.666-0.715,2.854v3.586c0,1.195,0.262,2.152,0.785,2.871
		s1.273,1.078,2.25,1.078c0.906,0,1.561-0.227,1.963-0.68s0.604-1.211,0.604-2.273H709.227z"/>
	<path class="st2" d="M723.854,52.741h-6.012v4.254h7.207v3.047h-11.168V42.98h11.18v3.047h-7.219v3.668h6.012V52.741z"/>
	<path class="st2" d="M738.436,55.519c0-0.609-0.199-1.076-0.598-1.4s-1.121-0.67-2.168-1.037c-2.117-0.688-3.689-1.42-4.717-2.197
		s-1.541-1.896-1.541-3.357c0-1.43,0.598-2.586,1.793-3.469s2.715-1.324,4.559-1.324c1.945,0,3.512,0.455,4.699,1.365
		s1.762,2.193,1.723,3.85l-0.023,0.07h-3.844c0-0.805-0.219-1.389-0.656-1.752s-1.098-0.545-1.98-0.545
		c-0.719,0-1.285,0.176-1.699,0.527s-0.621,0.785-0.621,1.301c0,0.5,0.213,0.9,0.639,1.201s1.221,0.678,2.385,1.131
		c1.977,0.586,3.473,1.301,4.488,2.145s1.523,2,1.523,3.469c0,1.5-0.586,2.674-1.758,3.521s-2.727,1.271-4.664,1.271
		c-1.93,0-3.564-0.455-4.904-1.365s-1.99-2.342-1.951-4.295l0.023-0.07h3.855c0,0.992,0.244,1.697,0.732,2.115
		s1.236,0.627,2.244,0.627c0.828,0,1.445-0.164,1.852-0.492S738.436,56.05,738.436,55.519z"/>
</g>
<linearGradient id="SVGID_1_" gradientUnits="userSpaceOnUse" x1="844" y1="239.7268" x2="956.2188" y2="239.7268">
	<stop  offset="0" style="stop-color:#ED353D"/>
	<stop  offset="1" style="stop-color:#B8181D"/>
</linearGradient>
<path class="st3" d="M944.219,253.227H856c-6.6,0-12-5.4-12-12v-3c0-6.6,5.4-12,12-12h88.219c6.6,0,12,5.4,12,12v3
	C956.219,247.827,950.819,253.227,944.219,253.227z"/>
<linearGradient id="SVGID_2_" gradientUnits="userSpaceOnUse" x1="401" y1="239.7268" x2="513.2188" y2="239.7268">
	<stop  offset="0" style="stop-color:#ED353D"/>
	<stop  offset="1" style="stop-color:#B8181D"/>
</linearGradient>
<path class="st4" d="M501.219,253.227H413c-6.6,0-12-5.4-12-12v-3c0-6.6,5.4-12,12-12h88.219c6.6,0,12,5.4,12,12v3
	C513.219,247.827,507.819,253.227,501.219,253.227z"/>
<path id="Right_Arrow_1_" class="st5" d="M1259.547,143.947c1.431,1.398,15.453,16.121,15.453,16.121
	c0.767,0.745,1.15,1.722,1.15,2.704c0,0.977-0.382,1.956-1.15,2.702c0,0-14.021,14.723-15.453,16.121
	c-1.436,1.4-4.017,1.498-5.552,0c-1.53-1.49-1.646-3.576,0.005-5.408l12.864-13.415L1254,149.354
	c-1.651-1.831-1.535-3.915-0.005-5.407C1255.53,142.452,1258.112,142.546,1259.547,143.947z"/>
<path id="Left_Arrow_1_" class="st5" d="M109.921,143.947c-1.431,1.398-15.455,16.121-15.455,16.121
	c-0.765,0.745-1.147,1.722-1.147,2.704c0,0.977,0.382,1.956,1.147,2.702c0,0,14.024,14.723,15.455,16.121
	c1.436,1.4,4.017,1.498,5.547,0c1.532-1.49,1.653-3.576,0-5.408l-12.864-13.415l12.864-13.419c1.653-1.831,1.532-3.915,0-5.407
	C113.938,142.452,111.357,142.546,109.921,143.947z"/>
</svg>